<svg width="38" height="39" viewBox="0 0 38 39" fill="none" xmlns="http://www.w3.org/2000/svg">
<path d="M17.7409 19.502C17.6624 19.502 17.5787 19.4746 17.4898 19.4225L15.8888 18.4548C15.8574 18.4356 15.8469 18.3945 15.8652 18.3616C15.8835 18.3287 15.9228 18.3178 15.9542 18.3369L17.5552 19.3047C17.665 19.3704 17.7618 19.3842 17.8325 19.3403C17.9031 19.2964 17.9423 19.2005 17.9423 19.0689V18.6659C17.9423 18.4822 18.0051 18.3452 18.1176 18.2766C18.2301 18.2081 18.3766 18.2218 18.5257 18.3123L18.8605 18.5151C18.8919 18.5343 18.9024 18.5754 18.8841 18.6083C18.8658 18.6412 18.8265 18.6522 18.7951 18.633L18.4603 18.4302C18.3504 18.3644 18.2536 18.3507 18.183 18.3945C18.1124 18.4384 18.0731 18.5343 18.0731 18.6659V19.0689C18.0731 19.2526 18.0103 19.3896 17.8979 19.4582C17.8534 19.4883 17.7984 19.502 17.7409 19.502Z" fill="#2AEDFF"/>
<path d="M17.1183 19.8768C17.0399 19.8768 16.9561 19.8494 16.8672 19.7973L15.2662 18.8296C15.2348 18.8104 15.2243 18.7693 15.2427 18.7364C15.261 18.7035 15.3002 18.6926 15.3316 18.7118L16.9326 19.6795C17.0425 19.7453 17.1393 19.759 17.2099 19.7151C17.2805 19.6712 17.3198 19.5753 17.3198 19.4437V19.038C17.3198 18.8543 17.3825 18.7172 17.495 18.6487C17.6075 18.5802 17.754 18.5939 17.9031 18.6843L18.238 18.8872C18.2694 18.9064 18.2798 18.9475 18.2615 18.9804C18.2432 19.0133 18.204 19.0243 18.1726 19.0051L17.8377 18.8022C17.7279 18.7364 17.6311 18.7227 17.5604 18.7666C17.4898 18.8104 17.4506 18.9064 17.4506 19.038V19.4437C17.4506 19.6274 17.3878 19.7644 17.2753 19.833C17.2308 19.8631 17.1759 19.8768 17.1183 19.8768Z" fill="#2AEDFF"/>
<path d="M16.4983 20.254C16.4198 20.254 16.3361 20.2266 16.2471 20.1745L14.6461 19.2068C14.6147 19.1876 14.6043 19.1465 14.6226 19.1136C14.6409 19.0807 14.6801 19.0697 14.7115 19.0889L16.3125 20.0566C16.4224 20.1224 16.5192 20.1361 16.5898 20.0922C16.6605 20.0484 16.6997 19.9524 16.6997 19.8208V19.4179C16.6997 19.2342 16.7625 19.0971 16.875 19.0286C16.9875 18.9601 17.134 18.9738 17.2831 19.0642L17.6179 19.2671C17.6493 19.2863 17.6598 19.3274 17.6415 19.3603C17.6232 19.3932 17.5839 19.4042 17.5525 19.385L17.2177 19.1821C17.1078 19.1163 17.011 19.1026 16.9404 19.1465C16.8698 19.1903 16.8305 19.2863 16.8305 19.4179V19.8208C16.8305 20.0045 16.7677 20.1416 16.6552 20.2101C16.6082 20.2403 16.5558 20.254 16.4983 20.254Z" fill="#2AEDFF"/>
<path d="M15.8755 20.6288C15.7971 20.6288 15.7133 20.6014 15.6244 20.5493L14.0234 19.5816C13.992 19.5624 13.9815 19.5213 13.9999 19.4884C14.0182 19.4555 14.0574 19.4445 14.0888 19.4637L15.6898 20.4314C15.7997 20.4972 15.8965 20.5109 15.9671 20.4671C16.0377 20.4232 16.077 20.3272 16.077 20.1957V19.7899C16.077 19.6063 16.1398 19.4692 16.2522 19.4007C16.3647 19.3321 16.5112 19.3458 16.6603 19.4363L16.9952 19.6392C17.0266 19.6584 17.037 19.6995 17.0187 19.7324C17.0004 19.7653 16.9612 19.7762 16.9298 19.757L16.5949 19.5542C16.4851 19.4884 16.3883 19.4747 16.3176 19.5185C16.247 19.5624 16.2078 19.6583 16.2078 19.7899V20.1957C16.2078 20.3793 16.145 20.5164 16.0325 20.5849C15.9854 20.6151 15.9331 20.6288 15.8755 20.6288Z" fill="#2AEDFF"/>
<path d="M15.2532 21.004C15.1747 21.004 15.091 20.9766 15.002 20.9245L13.401 19.9568C13.3696 19.9376 13.3592 19.8965 13.3775 19.8636C13.3958 19.8307 13.435 19.8197 13.4664 19.8389L15.0674 20.8066C15.1773 20.8724 15.2741 20.8861 15.3447 20.8422C15.4153 20.7984 15.4546 20.7024 15.4546 20.5708V20.1679C15.4546 19.9842 15.5174 19.8471 15.6299 19.7786C15.7423 19.7101 15.8888 19.7238 16.038 19.8142L16.3728 20.0171C16.4042 20.0363 16.4147 20.0774 16.3963 20.1103C16.378 20.1432 16.3388 20.1542 16.3074 20.135L15.9726 19.9321C15.8627 19.8663 15.7659 19.8526 15.6953 19.8965C15.6246 19.9403 15.5854 20.0363 15.5854 20.1679V20.5708C15.5854 20.7545 15.5226 20.8916 15.4101 20.9601C15.363 20.9875 15.3107 21.004 15.2532 21.004Z" fill="#2AEDFF"/>
<path d="M14.6306 21.3798C14.5521 21.3798 14.4684 21.3524 14.3795 21.3003L12.7785 20.3326C12.7471 20.3134 12.7366 20.2723 12.7549 20.2394C12.7732 20.2065 12.8125 20.1955 12.8439 20.2147L14.4449 21.1824C14.5547 21.2482 14.6515 21.2619 14.7222 21.218C14.7928 21.1742 14.832 21.0782 14.832 20.9466V20.5409C14.832 20.3572 14.8948 20.2202 15.0073 20.1516C15.1198 20.0831 15.2663 20.0968 15.4154 20.1873L15.7502 20.3901C15.7816 20.4093 15.7921 20.4504 15.7738 20.4833C15.7555 20.5162 15.7162 20.5272 15.6848 20.508L15.35 20.3052C15.2401 20.2394 15.1433 20.2257 15.0727 20.2695C15.0021 20.3134 14.9628 20.4093 14.9628 20.5409V20.9466C14.9628 21.1303 14.9 21.2674 14.7876 21.3359C14.7405 21.3633 14.6881 21.3798 14.6306 21.3798Z" fill="#2AEDFF"/>
<path d="M14.0079 21.752C13.9294 21.752 13.8457 21.7246 13.7567 21.6725L12.1557 20.7048C12.1243 20.6856 12.1139 20.6445 12.1322 20.6116C12.1505 20.5787 12.1897 20.5678 12.2211 20.5869L13.8221 21.5547C13.932 21.6204 14.0288 21.6342 14.0994 21.5903C14.17 21.5464 14.2093 21.4505 14.2093 21.3189V20.9159C14.2093 20.7322 14.2721 20.5952 14.3846 20.5266C14.497 20.4581 14.6436 20.4718 14.7927 20.5623L15.1275 20.7651C15.1589 20.7843 15.1694 20.8254 15.1511 20.8583C15.1327 20.8912 15.0935 20.9022 15.0621 20.883L14.7273 20.6802C14.6174 20.6144 14.5206 20.6007 14.45 20.6445C14.3793 20.6884 14.3401 20.7843 14.3401 20.9159V21.3189C14.3401 21.5026 14.2773 21.6396 14.1648 21.7082C14.1177 21.7383 14.0654 21.752 14.0079 21.752Z" fill="#2AEDFF"/>
<path d="M13.3853 22.1278C13.3068 22.1278 13.2231 22.1004 13.1342 22.0483L11.5332 21.0806C11.5018 21.0614 11.4913 21.0203 11.5096 20.9874C11.5279 20.9545 11.5672 20.9435 11.5986 20.9627L13.1996 21.9304C13.3094 21.9962 13.4062 22.0099 13.4769 21.9661C13.5475 21.9222 13.5867 21.8263 13.5867 21.6947V21.289C13.5867 21.1053 13.6495 20.9682 13.762 20.8997C13.8745 20.8312 14.021 20.8449 14.1701 20.9353L14.505 21.1382C14.5363 21.1574 14.5468 21.1985 14.5285 21.2314C14.5102 21.2643 14.4709 21.2753 14.4396 21.2561L14.1047 21.0532C13.9948 20.9874 13.898 20.9737 13.8274 21.0176C13.7568 21.0614 13.7175 21.1574 13.7175 21.289V21.6947C13.7175 21.8784 13.6547 22.0154 13.5423 22.084C13.4978 22.1141 13.4429 22.1278 13.3853 22.1278Z" fill="#2AEDFF"/>
<path d="M12.7629 22.503C12.6844 22.503 12.6007 22.4756 12.5118 22.4235L10.9108 21.4558C10.8794 21.4366 10.8689 21.3955 10.8872 21.3626C10.9056 21.3297 10.9448 21.3187 10.9762 21.3379L12.5772 22.3056C12.6871 22.3714 12.7839 22.3851 12.8545 22.3413C12.9251 22.2974 12.9644 22.2015 12.9644 22.0699V21.6669C12.9644 21.4832 13.0271 21.3461 13.1396 21.2776C13.2521 21.2091 13.3986 21.2228 13.5477 21.3133L13.8826 21.5161C13.914 21.5353 13.9244 21.5764 13.9061 21.6093C13.8878 21.6422 13.8486 21.6532 13.8172 21.634L13.4823 21.4311C13.3725 21.3653 13.2757 21.3516 13.205 21.3955C13.1344 21.4394 13.0952 21.5353 13.0952 21.6669V22.0699C13.0952 22.2535 13.0324 22.3906 12.9199 22.4591C12.8754 22.4893 12.8205 22.503 12.7629 22.503Z" fill="#2AEDFF"/>
<path d="M12.1402 22.8798C12.0617 22.8798 11.978 22.8524 11.889 22.8003L10.2881 21.8326C10.2567 21.8134 10.2462 21.7723 10.2645 21.7394C10.2828 21.7065 10.3221 21.6955 10.3535 21.7147L11.9544 22.6824C12.0643 22.7482 12.1611 22.7619 12.2317 22.718C12.3024 22.6742 12.3416 22.5782 12.3416 22.4466V22.0409C12.3416 21.8572 12.4044 21.7202 12.5169 21.6516C12.6294 21.5831 12.7759 21.5968 12.925 21.6873L13.2598 21.8901C13.2912 21.9093 13.3017 21.9504 13.2834 21.9833C13.2651 22.0162 13.2258 22.0272 13.1944 22.008L12.8596 21.8052C12.7497 21.7394 12.6529 21.7257 12.5823 21.7695C12.5117 21.8134 12.4724 21.9093 12.4724 22.0409V22.4466C12.4724 22.6303 12.4096 22.7674 12.2971 22.8359C12.2527 22.8661 12.1977 22.8798 12.1402 22.8798Z" fill="#2AEDFF"/>
<path d="M11.5176 23.255C11.4391 23.255 11.3554 23.2275 11.2665 23.1755L9.66549 22.2078C9.6341 22.1886 9.62363 22.1474 9.64195 22.1146C9.66026 22.0817 9.6995 22.0707 9.73089 22.0899L11.3319 23.0576C11.4418 23.1234 11.5385 23.1371 11.6092 23.0932C11.6798 23.0494 11.7191 22.9534 11.7191 22.8218V22.4188C11.7191 22.2352 11.7818 22.0981 11.8943 22.0296C12.0068 21.961 12.1533 21.9747 12.3024 22.0652L12.6373 22.2681C12.6687 22.2873 12.6791 22.3284 12.6608 22.3613C12.6425 22.3942 12.6033 22.4051 12.5719 22.3859L12.237 22.1831C12.1271 22.1173 12.0304 22.1036 11.9597 22.1474C11.8891 22.1913 11.8499 22.2873 11.8499 22.4188V22.8218C11.8499 23.0055 11.7871 23.1426 11.6746 23.2111C11.6301 23.2413 11.5752 23.255 11.5176 23.255Z" fill="#2AEDFF"/>
<path d="M10.8946 23.6298C10.8161 23.6298 10.7324 23.6024 10.6434 23.5503L9.04244 22.5826C9.01105 22.5634 9.00059 22.5223 9.0189 22.4894C9.03721 22.4565 9.07645 22.4455 9.10784 22.4647L10.7088 23.4324C10.8187 23.4982 10.9155 23.5119 10.9861 23.468C11.0568 23.4242 11.096 23.3282 11.096 23.1966V22.7909C11.096 22.6072 11.1588 22.4702 11.2713 22.4016C11.3838 22.3331 11.5303 22.3468 11.6794 22.4373L12.0142 22.6401C12.0456 22.6593 12.0561 22.7004 12.0378 22.7333C12.0195 22.7662 11.9802 22.7772 11.9488 22.758L11.614 22.5552C11.5041 22.4894 11.4073 22.4757 11.3367 22.5195C11.266 22.5634 11.2268 22.6593 11.2268 22.7909V23.1966C11.2268 23.3803 11.164 23.5174 11.0515 23.5859C11.0071 23.6133 10.9521 23.6298 10.8946 23.6298Z" fill="#2AEDFF"/>
<path d="M10.275 24.0059C10.1965 24.0059 10.1128 23.9785 10.0239 23.9264L8.42287 22.9587C8.39148 22.9395 8.38102 22.8984 8.39933 22.8655C8.41764 22.8326 8.45688 22.8217 8.48827 22.8409L10.0893 23.8086C10.1991 23.8744 10.2959 23.8881 10.3666 23.8442C10.4372 23.8003 10.4764 23.7044 10.4764 23.5728V23.1698C10.4764 22.9861 10.5392 22.8491 10.6517 22.7805C10.7642 22.712 10.9107 22.7257 11.0598 22.8162L11.3947 23.019C11.426 23.0382 11.4365 23.0794 11.4182 23.1123C11.3999 23.1451 11.3606 23.1561 11.3293 23.1369L10.9944 22.9341C10.8845 22.8683 10.7877 22.8546 10.7171 22.8984C10.6465 22.9423 10.6072 23.0382 10.6072 23.1698V23.5728C10.6072 23.7565 10.5445 23.8935 10.432 23.9621C10.3849 23.9895 10.3326 24.0059 10.275 24.0059Z" fill="#2AEDFF"/>
<path d="M9.65244 24.379C9.57396 24.379 9.49025 24.3516 9.40131 24.2995L7.80032 23.3318C7.76892 23.3126 7.75846 23.2715 7.77677 23.2386C7.79508 23.2057 7.83432 23.1947 7.86572 23.2139L9.46671 24.1816C9.57658 24.2474 9.67337 24.2611 9.74401 24.2172C9.81464 24.1734 9.85388 24.0774 9.85388 23.9458V23.5429C9.85388 23.3592 9.91666 23.2221 10.0292 23.1536C10.1416 23.0851 10.2881 23.0988 10.4372 23.1892L10.7721 23.3921C10.8035 23.4113 10.814 23.4524 10.7956 23.4853C10.7773 23.5182 10.7381 23.5292 10.7067 23.51L10.3718 23.3071C10.262 23.2413 10.1652 23.2276 10.0946 23.2715C10.0239 23.3153 9.98468 23.4113 9.98468 23.5429V23.9458C9.98468 24.1295 9.9219 24.2666 9.80941 24.3351C9.76232 24.3653 9.71 24.379 9.65244 24.379Z" fill="#2AEDFF"/>
<path d="M9.02964 24.754C8.95116 24.754 8.86745 24.7266 8.77851 24.6745L7.17751 23.7068C7.14612 23.6876 7.13566 23.6465 7.15397 23.6136C7.17228 23.5807 7.21152 23.5697 7.24291 23.5889L8.84391 24.5566C8.95378 24.6224 9.05057 24.6361 9.1212 24.5922C9.19184 24.5484 9.23108 24.4524 9.23108 24.3208V23.9179C9.23108 23.7342 9.29386 23.5971 9.40635 23.5286C9.51884 23.4601 9.66533 23.4738 9.81444 23.5642L10.1493 23.7671C10.1807 23.7863 10.1912 23.8274 10.1728 23.8603C10.1545 23.8932 10.1153 23.9042 10.0839 23.885L9.74904 23.6821C9.63917 23.6163 9.54238 23.6026 9.47175 23.6465C9.40112 23.6903 9.36188 23.7863 9.36188 23.9179V24.3208C9.36188 24.5045 9.29909 24.6416 9.1866 24.7101C9.13952 24.7403 9.08719 24.754 9.02964 24.754Z" fill="#2AEDFF"/>
<path d="M8.40734 25.13C8.32886 25.13 8.24514 25.1025 8.15619 25.0505L6.5552 24.0828C6.52381 24.0636 6.51334 24.0224 6.53165 23.9895C6.54997 23.9567 6.58921 23.9457 6.6206 23.9649L8.22159 24.9326C8.33147 24.9984 8.42826 25.0121 8.49889 24.9682C8.56952 24.9244 8.60877 24.8284 8.60877 24.6968V24.2938C8.60877 24.1102 8.67155 23.9731 8.78404 23.9046C8.89653 23.836 9.04303 23.8497 9.19214 23.9402L9.52699 24.1431C9.55838 24.1623 9.56884 24.2034 9.55053 24.2363C9.53222 24.2692 9.49298 24.2801 9.46159 24.2609L9.12674 24.0581C9.01687 23.9923 8.92007 23.9786 8.84944 24.0224C8.77881 24.0663 8.73957 24.1623 8.73957 24.2938V24.6968C8.73957 24.8805 8.67678 25.0176 8.56429 25.0861C8.5172 25.1163 8.46489 25.13 8.40734 25.13Z" fill="#2AEDFF"/>
<path d="M7.78453 25.5048C7.70605 25.5048 7.62234 25.4774 7.5334 25.4253L5.9324 24.4576C5.901 24.4384 5.89054 24.3973 5.90885 24.3644C5.92716 24.3315 5.9664 24.3205 5.9978 24.3397L7.5988 25.3074C7.70867 25.3732 7.80546 25.3869 7.87609 25.343C7.94673 25.2992 7.98596 25.2032 7.98596 25.0716V24.6659C7.98596 24.4822 8.04875 24.3452 8.16124 24.2766C8.27373 24.2081 8.42022 24.2218 8.56933 24.3123L8.90418 24.5151C8.93558 24.5343 8.94604 24.5754 8.92773 24.6083C8.90941 24.6412 8.87018 24.6522 8.83878 24.633L8.50393 24.4302C8.39406 24.3644 8.29727 24.3507 8.22664 24.3945C8.15601 24.4384 8.11676 24.5343 8.11676 24.6659V25.0716C8.11676 25.2553 8.05398 25.3924 7.94149 25.4609C7.89441 25.4911 7.84208 25.5048 7.78453 25.5048Z" fill="#2AEDFF"/>
<path d="M7.16154 25.8809C7.08306 25.8809 6.99935 25.8535 6.91041 25.8014L5.30942 24.8337C5.27802 24.8145 5.26755 24.7734 5.28586 24.7405C5.30418 24.7076 5.34342 24.6967 5.37482 24.7159L6.97581 25.6836C7.08568 25.7494 7.18247 25.7631 7.25311 25.7192C7.32374 25.6753 7.36297 25.5794 7.36297 25.4478V25.0448C7.36297 24.8611 7.42576 24.7241 7.53825 24.6555C7.65074 24.587 7.79723 24.6007 7.94635 24.6912L8.2812 24.894C8.31259 24.9132 8.32305 24.9544 8.30474 24.9872C8.28643 25.0201 8.24719 25.0311 8.2158 25.0119L7.88095 24.8091C7.77107 24.7433 7.67428 24.7296 7.60365 24.7734C7.53302 24.8173 7.49377 24.9132 7.49377 25.0448V25.4478C7.49377 25.6315 7.43099 25.7685 7.31851 25.8371C7.27403 25.8672 7.2191 25.8809 7.16154 25.8809Z" fill="#2AEDFF"/>
<path d="M6.53941 26.2567C6.46093 26.2567 6.37722 26.2293 6.28827 26.1772L4.68728 25.2095C4.65589 25.1903 4.64542 25.1492 4.66374 25.1163C4.68205 25.0834 4.72129 25.0725 4.75268 25.0916L6.35367 26.0593C6.46355 26.1251 6.56034 26.1388 6.63097 26.095C6.7016 26.0511 6.74084 25.9552 6.74084 25.8236V25.4179C6.74084 25.2342 6.80363 25.0971 6.91611 25.0286C7.0286 24.9601 7.1751 24.9738 7.32421 25.0642L7.65906 25.2671C7.69045 25.2863 7.70091 25.3274 7.6826 25.3603C7.66429 25.3932 7.62505 25.4042 7.59366 25.385L7.25881 25.1821C7.14894 25.1163 7.05215 25.1026 6.98151 25.1465C6.91088 25.1903 6.87164 25.2863 6.87164 25.4179V25.8236C6.87164 26.0073 6.80886 26.1443 6.69637 26.2129C6.6519 26.2403 6.59696 26.2567 6.53941 26.2567Z" fill="#2AEDFF"/>
<path d="M5.91642 26.6329C5.83794 26.6329 5.75423 26.6055 5.66529 26.5534L4.06429 25.5857C4.0329 25.5665 4.02244 25.5254 4.04075 25.4925C4.05906 25.4596 4.0983 25.4486 4.12969 25.4678L5.73069 26.4355C5.84056 26.5013 5.93735 26.515 6.00798 26.4711C6.07862 26.4273 6.11786 26.3313 6.11786 26.1998V25.7968C6.11786 25.6131 6.18064 25.476 6.29313 25.4075C6.40562 25.339 6.55211 25.3527 6.70122 25.4431L7.03607 25.646C7.06747 25.6652 7.07793 25.7063 7.05962 25.7392C7.0413 25.7721 7.00206 25.7831 6.97067 25.7639L6.63582 25.561C6.52595 25.4952 6.42916 25.4815 6.35853 25.5254C6.2879 25.5692 6.24866 25.6652 6.24866 25.7968V26.1998C6.24866 26.3834 6.18587 26.5205 6.07338 26.589C6.02891 26.6164 5.97397 26.6329 5.91642 26.6329Z" fill="#2AEDFF"/>
<path d="M20.2912 19.5321C20.2337 19.5321 20.1787 19.5184 20.1317 19.4883C20.0192 19.4197 19.9564 19.2827 19.9564 19.099V18.6933C19.9564 18.5617 19.9171 18.4657 19.8465 18.4219C19.7759 18.378 19.6765 18.3917 19.5692 18.4575L19.2344 18.6604C19.203 18.6796 19.1637 18.6686 19.1454 18.6357C19.1271 18.6028 19.1376 18.5617 19.169 18.5425L19.5038 18.3396C19.6555 18.2492 19.7994 18.2354 19.9119 18.304C20.0244 18.3725 20.0872 18.5096 20.0872 18.6933V19.099C20.0872 19.2306 20.1264 19.3265 20.1971 19.3704C20.2677 19.4142 20.3671 19.4005 20.4744 19.3347L22.0754 18.367C22.1067 18.3478 22.146 18.3588 22.1643 18.3917C22.1826 18.4246 22.1721 18.4657 22.1408 18.4849L20.5398 19.4526C20.456 19.5074 20.3697 19.5321 20.2912 19.5321Z" fill="#2AEDFF"/>
<path d="M20.914 19.9073C20.8564 19.9073 20.8041 19.8936 20.7544 19.8634C20.6419 19.7949 20.5791 19.6578 20.5791 19.4742V19.0712C20.5791 18.9396 20.5399 18.8437 20.4693 18.7998C20.3986 18.7559 20.2992 18.7696 20.192 18.8354L19.8571 19.0383C19.8257 19.0575 19.7865 19.0465 19.7682 19.0136C19.7499 18.9807 19.7603 18.9396 19.7917 18.9204L20.1266 18.7175C20.2783 18.6271 20.4222 18.6134 20.5347 18.6819C20.6471 18.7504 20.7099 18.8875 20.7099 19.0712V19.4742C20.7099 19.6058 20.7492 19.7017 20.8198 19.7456C20.8904 19.7894 20.9898 19.7757 21.0971 19.7099L22.6981 18.7422C22.7295 18.723 22.7687 18.734 22.787 18.7669C22.8054 18.7998 22.7949 18.8409 22.7635 18.8601L21.1625 19.8278C21.0762 19.8826 20.9925 19.9073 20.914 19.9073Z" fill="#2AEDFF"/>
<path d="M21.5365 20.2831C21.479 20.2831 21.4267 20.2694 21.377 20.2392C21.2645 20.1707 21.2017 20.0336 21.2017 19.85V19.4442C21.2017 19.3126 21.1624 19.2167 21.0918 19.1728C21.0212 19.129 20.9218 19.1427 20.8145 19.2085L20.4797 19.4113C20.4483 19.4305 20.409 19.4196 20.3907 19.3867C20.3724 19.3538 20.3829 19.3126 20.4143 19.2935L20.7491 19.0906C20.9008 19.0001 21.0447 18.9864 21.1572 19.055C21.2697 19.1235 21.3325 19.2606 21.3325 19.4442V19.85C21.3325 19.9815 21.3717 20.0775 21.4424 20.1214C21.513 20.1652 21.6124 20.1515 21.7197 20.0857L23.3206 19.118C23.352 19.0988 23.3913 19.1098 23.4096 19.1427C23.4279 19.1756 23.4174 19.2167 23.386 19.2359L21.7851 20.2036C21.6987 20.2584 21.615 20.2831 21.5365 20.2831Z" fill="#2AEDFF"/>
<path d="M22.1591 20.6593C22.1015 20.6593 22.0466 20.6456 21.9995 20.6154C21.887 20.5469 21.8242 20.4098 21.8242 20.2261V19.8231C21.8242 19.6916 21.785 19.5956 21.7144 19.5517C21.6437 19.5079 21.5443 19.5216 21.4371 19.5874L21.1022 19.7902C21.0708 19.8094 21.0316 19.7985 21.0133 19.7656C20.995 19.7327 21.0054 19.6916 21.0368 19.6724L21.3717 19.4695C21.5234 19.379 21.6673 19.3653 21.7798 19.4339C21.8923 19.5024 21.955 19.6395 21.955 19.8231V20.2261C21.955 20.3577 21.9943 20.4537 22.0649 20.4975C22.1355 20.5414 22.235 20.5277 22.3422 20.4619L23.9432 19.4942C23.9746 19.475 24.0138 19.4859 24.0322 19.5188C24.0505 19.5517 24.04 19.5929 24.0086 19.6121L22.4076 20.5798C22.3213 20.6318 22.2376 20.6593 22.1591 20.6593Z" fill="#2AEDFF"/>
<path d="M22.7817 21.0341C22.7241 21.0341 22.6692 21.0204 22.6221 20.9902C22.5096 20.9217 22.4468 20.7846 22.4468 20.6009V20.1952C22.4468 20.0636 22.4076 19.9677 22.3369 19.9238C22.2663 19.88 22.1669 19.8937 22.0596 19.9595L21.7248 20.1623C21.6934 20.1815 21.6542 20.1705 21.6358 20.1376C21.6175 20.1047 21.628 20.0636 21.6594 20.0444L21.9942 19.8416C22.146 19.7511 22.2898 19.7374 22.4023 19.8059C22.5148 19.8745 22.5776 20.0115 22.5776 20.1952V20.6009C22.5776 20.7325 22.6168 20.8285 22.6875 20.8723C22.7581 20.9162 22.8575 20.9025 22.9648 20.8367L24.5658 19.869C24.5972 19.8498 24.6364 19.8608 24.6547 19.8937C24.673 19.9266 24.6626 19.9677 24.6312 19.9869L23.0302 20.9546C22.9438 21.0067 22.8601 21.0341 22.7817 21.0341Z" fill="#2AEDFF"/>
<path d="M23.4042 21.4102C23.3467 21.4102 23.2943 21.3965 23.2446 21.3664C23.1322 21.2978 23.0694 21.1608 23.0694 20.9771V20.5741C23.0694 20.4425 23.0301 20.3466 22.9595 20.3027C22.8889 20.2589 22.7894 20.2726 22.6822 20.3384L22.3473 20.5412C22.316 20.5604 22.2767 20.5494 22.2584 20.5165C22.2401 20.4837 22.2506 20.4425 22.2819 20.4233L22.6168 20.2205C22.7685 20.13 22.9124 20.1163 23.0249 20.1848C23.1374 20.2534 23.2002 20.3904 23.2002 20.5741V20.9771C23.2002 21.1087 23.2394 21.2046 23.31 21.2485C23.3807 21.2924 23.4801 21.2786 23.5873 21.2129L25.1883 20.2452C25.2197 20.226 25.259 20.2369 25.2773 20.2698C25.2956 20.3027 25.2851 20.3438 25.2537 20.363L23.6527 21.3307C23.5664 21.3828 23.4827 21.4102 23.4042 21.4102Z" fill="#2AEDFF"/>
<path d="M24.027 21.7852C23.9695 21.7852 23.9145 21.7715 23.8674 21.7414C23.7549 21.6728 23.6922 21.5358 23.6922 21.3521V20.9491C23.6922 20.8175 23.6529 20.7216 23.5823 20.6777C23.5117 20.6339 23.4123 20.6476 23.305 20.7134L22.9701 20.9162C22.9388 20.9354 22.8995 20.9244 22.8812 20.8915C22.8629 20.8587 22.8734 20.8175 22.9047 20.7983L23.2396 20.5955C23.3913 20.505 23.5352 20.4913 23.6477 20.5598C23.7602 20.6284 23.823 20.7654 23.823 20.9491V21.3521C23.823 21.4837 23.8622 21.5796 23.9328 21.6235C24.0035 21.6674 24.1029 21.6536 24.2101 21.5879L25.8111 20.6201C25.8425 20.601 25.8818 20.6119 25.9001 20.6448C25.9184 20.6777 25.9079 20.7188 25.8765 20.738L24.2755 21.7057C24.1892 21.7578 24.1029 21.7852 24.027 21.7852Z" fill="#2AEDFF"/>
<path d="M24.6468 22.1583C24.5892 22.1583 24.5369 22.1446 24.4872 22.1144C24.3747 22.0459 24.3119 21.9088 24.3119 21.7251V21.3222C24.3119 21.1906 24.2727 21.0946 24.202 21.0508C24.1314 21.0069 24.032 21.0206 23.9247 21.0864L23.5899 21.2893C23.5585 21.3085 23.5193 21.2975 23.501 21.2646C23.4826 21.2317 23.4931 21.1906 23.5245 21.1714L23.8593 20.9685C24.0111 20.8781 24.155 20.8644 24.2674 20.9329C24.3799 21.0014 24.4427 21.1385 24.4427 21.3222V21.7251C24.4427 21.8567 24.482 21.9527 24.5526 21.9965C24.6232 22.0404 24.7226 22.0267 24.8299 21.9609L26.4309 20.9932C26.4623 20.974 26.5015 20.985 26.5198 21.0179C26.5381 21.0508 26.5277 21.0919 26.4963 21.1111L24.8953 22.0788C24.8116 22.1336 24.7252 22.1583 24.6468 22.1583Z" fill="#2AEDFF"/>
<path d="M25.2693 22.5333C25.2118 22.5333 25.1568 22.5196 25.1097 22.4894C24.9973 22.4209 24.9345 22.2838 24.9345 22.1001V21.6972C24.9345 21.5656 24.8952 21.4696 24.8246 21.4258C24.754 21.3819 24.6546 21.3956 24.5473 21.4614L24.2125 21.6643C24.1811 21.6835 24.1418 21.6725 24.1235 21.6396C24.1052 21.6067 24.1157 21.5656 24.1471 21.5464L24.4819 21.3435C24.6336 21.2531 24.7775 21.2394 24.89 21.3079C25.0025 21.3764 25.0653 21.5135 25.0653 21.6972V22.1001C25.0653 22.2317 25.1045 22.3277 25.1751 22.3715C25.2458 22.4154 25.3452 22.4017 25.4524 22.3359L27.0534 21.3682C27.0848 21.349 27.1241 21.36 27.1424 21.3929C27.1607 21.4258 27.1502 21.4669 27.1188 21.4861L25.5178 22.4538C25.4341 22.5086 25.3478 22.5333 25.2693 22.5333Z" fill="#2AEDFF"/>
<path d="M26.5147 23.2843C26.4571 23.2843 26.4022 23.2706 26.3551 23.2404C26.2426 23.1719 26.1798 23.0348 26.1798 22.8511V22.4481C26.1798 22.3166 26.1406 22.2206 26.07 22.1767C25.9993 22.1329 25.8999 22.1466 25.7927 22.2124L25.4578 22.4152C25.4264 22.4344 25.3872 22.4235 25.3689 22.3906C25.3506 22.3577 25.361 22.3166 25.3924 22.2974L25.7273 22.0945C25.879 22.004 26.0229 21.9903 26.1354 22.0589C26.2479 22.1274 26.3106 22.2645 26.3106 22.4481V22.8511C26.3106 22.9827 26.3499 23.0787 26.4205 23.1225C26.4911 23.1664 26.5905 23.1527 26.6978 23.0869L28.2988 22.1192C28.3302 22.1 28.3694 22.111 28.3877 22.1438C28.4061 22.1767 28.3956 22.2179 28.3642 22.2371L26.7632 23.2048C26.6795 23.2568 26.5932 23.2843 26.5147 23.2843Z" fill="#2AEDFF"/>
<path d="M27.1372 23.66C27.0797 23.66 27.0248 23.6463 26.9777 23.6162C26.8652 23.5476 26.8024 23.4106 26.8024 23.2269V22.8212C26.8024 22.6896 26.7632 22.5937 26.6925 22.5498C26.6219 22.5059 26.5225 22.5196 26.4152 22.5854L26.0804 22.7883C26.049 22.8075 26.0097 22.7965 25.9914 22.7636C25.9731 22.7307 25.9836 22.6896 26.015 22.6704L26.3498 22.4675C26.5016 22.3771 26.6454 22.3634 26.7579 22.4319C26.8704 22.5004 26.9332 22.6375 26.9332 22.8212V23.2269C26.9332 23.3585 26.9724 23.4544 27.0431 23.4983C27.1137 23.5422 27.2131 23.5285 27.3204 23.4627L28.9214 22.495C28.9527 22.4758 28.992 22.4867 29.0103 22.5196C29.0286 22.5525 29.0181 22.5937 28.9868 22.6128L27.3858 23.5805C27.2994 23.6326 27.2157 23.66 27.1372 23.66Z" fill="#2AEDFF"/>
<path d="M27.7598 24.036C27.7022 24.036 27.6473 24.0223 27.6002 23.9922C27.4877 23.9236 27.425 23.7866 27.425 23.6029V23.1972C27.425 23.0656 27.3857 22.9696 27.3151 22.9258C27.2445 22.8819 27.145 22.8956 27.0378 22.9614L26.7029 23.1643C26.6715 23.1835 26.6323 23.1725 26.614 23.1396C26.5957 23.1067 26.6061 23.0656 26.6375 23.0464L26.9724 22.8435C27.1241 22.7531 27.268 22.7394 27.3805 22.8079C27.493 22.8764 27.5558 23.0135 27.5558 23.1972V23.6001C27.5558 23.7317 27.595 23.8277 27.6656 23.8715C27.7363 23.9154 27.8357 23.9017 27.9429 23.8359L29.5439 22.8682C29.5753 22.849 29.6146 22.86 29.6329 22.8929C29.6512 22.9258 29.6407 22.9669 29.6093 22.9861L28.0083 23.9538C27.922 24.0086 27.8383 24.036 27.7598 24.036Z" fill="#2AEDFF"/>
<path d="M28.3824 24.412C28.3248 24.412 28.2699 24.3983 28.2228 24.3681C28.1103 24.2996 28.0475 24.1625 28.0475 23.9789V23.5731C28.0475 23.4416 28.0083 23.3456 27.9376 23.3017C27.867 23.2579 27.7676 23.2716 27.6603 23.3374L27.3255 23.5402C27.2941 23.5594 27.2549 23.5485 27.2366 23.5156C27.2182 23.4827 27.2287 23.4416 27.2601 23.4224L27.5949 23.2195C27.7467 23.129 27.8906 23.1153 28.003 23.1839C28.1155 23.2524 28.1783 23.3895 28.1783 23.5731V23.9789C28.1783 24.1104 28.2176 24.2064 28.2882 24.2503C28.3588 24.2941 28.4582 24.2804 28.5655 24.2146L30.1665 23.2469C30.1979 23.2277 30.2371 23.2387 30.2554 23.2716C30.2737 23.3045 30.2633 23.3456 30.2319 23.3648L28.6309 24.3325C28.5446 24.3846 28.4608 24.412 28.3824 24.412Z" fill="#2AEDFF"/>
<path d="M29.0049 24.7843C28.9474 24.7843 28.8924 24.7706 28.8453 24.7404C28.7329 24.6719 28.6701 24.5348 28.6701 24.3511V23.9481C28.6701 23.8166 28.6308 23.7206 28.5602 23.6767C28.4896 23.6329 28.3902 23.6466 28.2829 23.7124L27.9481 23.9152C27.9167 23.9344 27.8774 23.9235 27.8591 23.8906C27.8408 23.8577 27.8513 23.8166 27.8827 23.7974L28.2175 23.5945C28.3692 23.504 28.5131 23.4903 28.6256 23.5589C28.7381 23.6274 28.8009 23.7645 28.8009 23.9481V24.3511C28.8009 24.4827 28.8401 24.5787 28.9107 24.6225C28.9814 24.6664 29.0808 24.6527 29.188 24.5869L30.789 23.6192C30.8204 23.6 30.8597 23.611 30.878 23.6438C30.8963 23.6767 30.8858 23.7179 30.8544 23.7371L29.2534 24.7048C29.1671 24.7596 29.0834 24.7843 29.0049 24.7843Z" fill="#2AEDFF"/>
<path d="M29.628 25.16C29.5704 25.16 29.5181 25.1463 29.4684 25.1162C29.3559 25.0476 29.2931 24.9106 29.2931 24.7269V24.3212C29.2931 24.1896 29.2539 24.0937 29.1832 24.0498C29.1126 24.0059 29.0132 24.0196 28.9059 24.0854L28.5711 24.2883C28.5397 24.3075 28.5005 24.2965 28.4822 24.2636C28.4638 24.2307 28.4743 24.1896 28.5057 24.1704L28.8405 23.9675C28.9923 23.8771 29.1362 23.8634 29.2486 23.9319C29.3611 24.0004 29.4239 24.1375 29.4239 24.3212V24.7269C29.4239 24.8585 29.4632 24.9544 29.5338 24.9983C29.6044 25.0422 29.7038 25.0285 29.8111 24.9627L31.4121 23.995C31.4435 23.9758 31.4827 23.9867 31.501 24.0196C31.5193 24.0525 31.5089 24.0937 31.4775 24.1128L29.8765 25.0805C29.7902 25.1354 29.7064 25.16 29.628 25.16Z" fill="#2AEDFF"/>
<path d="M30.2503 25.5352C30.1927 25.5352 30.1378 25.5215 30.0907 25.4914C29.9782 25.4228 29.9154 25.2858 29.9154 25.1021V24.6991C29.9154 24.5675 29.8762 24.4716 29.8056 24.4277C29.7349 24.3839 29.6355 24.3976 29.5283 24.4634L29.1934 24.6662C29.162 24.6854 29.1228 24.6744 29.1045 24.6415C29.0862 24.6087 29.0966 24.5675 29.128 24.5483L29.4629 24.3455C29.6146 24.255 29.7585 24.2413 29.871 24.3098C29.9834 24.3784 30.0462 24.5154 30.0462 24.6991V25.1021C30.0462 25.2337 30.0855 25.3296 30.1561 25.3735C30.2267 25.4174 30.3261 25.4036 30.4334 25.3379L32.0344 24.3701C32.0658 24.351 32.105 24.3619 32.1233 24.3948C32.1417 24.4277 32.1312 24.4688 32.0998 24.488L30.4988 25.4557C30.4125 25.5078 30.3261 25.5352 30.2503 25.5352Z" fill="#2AEDFF"/>
<path d="M30.8731 25.912C30.8155 25.912 30.7606 25.8983 30.7135 25.8681C30.601 25.7996 30.5382 25.6625 30.5382 25.4789V25.0731C30.5382 24.9416 30.499 24.8456 30.4284 24.8017C30.3577 24.7579 30.2583 24.7716 30.1511 24.8374L29.8162 25.0402C29.7848 25.0594 29.7456 25.0485 29.7273 25.0156C29.709 24.9827 29.7194 24.9416 29.7508 24.9224L30.0857 24.7195C30.2374 24.629 30.3813 24.6153 30.4938 24.6839C30.6062 24.7524 30.669 24.8895 30.669 25.0731V25.4789C30.669 25.6104 30.7083 25.7064 30.7789 25.7503C30.8495 25.7941 30.9489 25.7804 31.0562 25.7146L32.6572 24.7469C32.6886 24.7277 32.7278 24.7387 32.7461 24.7716C32.7645 24.8045 32.754 24.8456 32.7226 24.8648L31.1216 25.8325C31.0353 25.8846 30.9489 25.912 30.8731 25.912Z" fill="#2AEDFF"/>
<path d="M31.4929 26.2872C31.4353 26.2872 31.383 26.2735 31.3333 26.2433C31.2208 26.1748 31.158 26.0377 31.158 25.8541V25.4511C31.158 25.3195 31.1188 25.2235 31.0482 25.1797C30.9775 25.1358 30.8781 25.1495 30.7709 25.2153L30.436 25.4182C30.4046 25.4374 30.3654 25.4264 30.3471 25.3935C30.3288 25.3606 30.3392 25.3195 30.3706 25.3003L30.7055 25.0974C30.8572 25.007 31.0011 24.9933 31.1136 25.0618C31.2261 25.1303 31.2888 25.2674 31.2888 25.4511V25.8541C31.2888 25.9856 31.3281 26.0816 31.3987 26.1254C31.4693 26.1693 31.5688 26.1556 31.676 26.0898L33.277 25.1221C33.3084 25.1029 33.3476 25.1139 33.366 25.1468C33.3843 25.1797 33.3738 25.2208 33.3424 25.24L31.7414 26.2077C31.6577 26.2598 31.5714 26.2872 31.4929 26.2872Z" fill="#2AEDFF"/>
<path d="M32.1154 26.662C32.0579 26.662 32.003 26.6483 31.9559 26.6181C31.8434 26.5496 31.7806 26.4125 31.7806 26.2289V25.8231C31.7806 25.6916 31.7414 25.5956 31.6707 25.5517C31.6001 25.5079 31.5007 25.5216 31.3934 25.5874L31.0586 25.7902C31.0272 25.8094 30.988 25.7985 30.9696 25.7656C30.9513 25.7327 30.9618 25.6916 30.9932 25.6724L31.328 25.4695C31.4798 25.379 31.6236 25.3653 31.7361 25.4339C31.8486 25.5024 31.9114 25.6395 31.9114 25.8231V26.2289C31.9114 26.3604 31.9506 26.4564 32.0213 26.5003C32.0919 26.5441 32.1913 26.5304 32.2986 26.4646L33.8996 25.4969C33.931 25.4777 33.9702 25.4887 33.9885 25.5216C34.0068 25.5545 33.9964 25.5956 33.965 25.6148L32.364 26.5825C32.2803 26.6346 32.1939 26.662 32.1154 26.662Z" fill="#2AEDFF"/>
<path d="M31.3179 25.8789V27.3675L19.0226 34.8076L6.72742 27.3675V25.8789H31.3179Z" fill="url(#paint0_linear_883_22608)"/>
<path d="M19.0223 33.3187L6.72711 25.8786L19.0223 18.4385L31.3176 25.8786L19.0223 33.3187Z" fill="#97C9FF"/>
<path d="M19.0226 33.1434L6.86868 25.791L6.72742 25.8787L19.0226 33.3188L31.3179 25.8787L31.174 25.791L19.0226 33.1434Z" fill="#D2FFFF"/>
<path d="M19.0225 31.6025L9.56561 25.8785L19.0225 20.1572L28.4793 25.8785L19.0225 31.6025Z" fill="#1621C9"/>
<path opacity="0.5" d="M19.0225 31.6025L9.56561 25.8785L19.0225 20.1572L28.4793 25.8812L19.0225 31.6025Z" fill="url(#paint1_linear_883_22608)"/>
<path opacity="0.5" d="M19.0222 18.7148L28.4791 24.4361V25.8808L19.0222 20.1568V18.7148Z" fill="url(#paint2_linear_883_22608)"/>
<path opacity="0.5" d="M19.0225 20.1568L9.56567 25.8781V24.4361L19.0225 18.7148V20.1568Z" fill="url(#paint3_linear_883_22608)"/>
<path opacity="0.5" d="M19.0225 30.1573L9.56567 24.4361L19.0225 18.7148L28.4794 24.4361L19.0225 30.1573Z" fill="url(#paint4_linear_883_22608)"/>
<path opacity="0.5" d="M19.0224 26.722L15.2422 24.4357L19.0224 22.1494L22.7999 24.4357L19.0224 26.722Z" fill="#2AEDFF"/>
<path opacity="0.5" d="M19.0224 22.3605L22.6272 24.5426L22.7999 24.4357L19.0224 22.1494L15.2422 24.4357L15.4175 24.5426L19.0224 22.3605Z" fill="#2AEDFF"/>
<path opacity="0.5" d="M19.0222 30.1568V31.6015L28.4791 25.8803V24.4355L19.0222 30.1568Z" fill="url(#paint5_linear_883_22608)"/>
<path opacity="0.5" d="M9.56561 24.4355V25.8775L19.0225 31.6015V30.1568L9.56561 24.4355Z" fill="url(#paint6_linear_883_22608)"/>
<path opacity="0.8" d="M19.0225 30.0009L9.69379 24.3564L9.56561 24.4359L19.0225 30.1572L28.4793 24.4359L28.3485 24.3564L19.0225 30.0009Z" fill="#2AEDFF"/>
<path d="M22.1088 36.6025C22.0984 36.6025 22.0879 36.5997 22.0774 36.5942L20.4764 35.6265C20.1861 35.4511 19.9585 35.0371 19.9585 34.6862V34.2805C19.9585 33.979 19.7544 33.6089 19.5059 33.4581L19.171 33.2552C19.1397 33.2361 19.1292 33.1949 19.1475 33.162C19.1658 33.1291 19.2051 33.1182 19.2364 33.1374L19.5713 33.3402C19.8617 33.5157 20.0893 33.9296 20.0893 34.2805V34.6835C20.0893 34.9851 20.2933 35.3551 20.5418 35.5059L22.1428 36.4736C22.1742 36.4928 22.1847 36.5339 22.1664 36.5668C22.1533 36.5888 22.1297 36.6025 22.1088 36.6025Z" fill="#2AEDFF"/>
<path d="M22.7314 36.2275C22.7209 36.2275 22.7104 36.2247 22.7 36.2192L21.099 35.2515C20.8086 35.0761 20.581 34.6621 20.581 34.3112V33.9055C20.581 33.604 20.377 33.2339 20.1285 33.0831L19.7936 32.8803C19.7622 32.8611 19.7517 32.8199 19.7701 32.787C19.7884 32.7541 19.8276 32.7432 19.859 32.7624L20.1939 32.9652C20.4842 33.1407 20.7118 33.5546 20.7118 33.9055V34.3112C20.7118 34.6128 20.9159 34.9829 21.1644 35.1337L22.7654 36.1014C22.7968 36.1206 22.8072 36.1617 22.7889 36.1946C22.7758 36.2138 22.7523 36.2275 22.7314 36.2275Z" fill="#2AEDFF"/>
<path d="M23.3539 35.8507C23.3435 35.8507 23.333 35.848 23.3225 35.8425L21.7216 34.8748C21.4312 34.6993 21.2036 34.2854 21.2036 33.9345V33.5315C21.2036 33.23 20.9995 32.8599 20.751 32.7091L20.4162 32.5062C20.3848 32.487 20.3743 32.4459 20.3926 32.413C20.4109 32.3801 20.4502 32.3692 20.4816 32.3883L20.8164 32.5912C21.1068 32.7667 21.3344 33.1806 21.3344 33.5342V33.9372C21.3344 34.2388 21.5384 34.6089 21.787 34.7596L23.3879 35.7273C23.4193 35.7465 23.4298 35.7877 23.4115 35.8205C23.3984 35.837 23.3749 35.8507 23.3539 35.8507Z" fill="#2AEDFF"/>
<path d="M23.9765 35.4765C23.966 35.4765 23.9556 35.4738 23.9451 35.4683L22.3441 34.5006C22.0537 34.3251 21.8261 33.9112 21.8261 33.5603V33.1545C21.8261 32.853 21.6221 32.4829 21.3736 32.3321L21.0387 32.1293C21.0073 32.1101 20.9969 32.069 21.0152 32.0361C21.0335 32.0032 21.0727 31.9922 21.1041 32.0114L21.439 32.2143C21.7293 32.3897 21.9569 32.8037 21.9569 33.1545V33.5603C21.9569 33.8618 22.161 34.2319 22.4095 34.3827L24.0105 35.3504C24.0419 35.3696 24.0524 35.4107 24.034 35.4436C24.021 35.4628 23.9974 35.4765 23.9765 35.4765Z" fill="#2AEDFF"/>
<path d="M24.5967 35.0976C24.5863 35.0976 24.5758 35.0948 24.5653 35.0894L22.9643 34.1217C22.674 33.9462 22.4464 33.5323 22.4464 33.1814V32.7756C22.4464 32.4741 22.2423 32.104 21.9938 31.9532L21.659 31.7504C21.6276 31.7312 21.6171 31.6901 21.6354 31.6572C21.6537 31.6243 21.693 31.6133 21.7244 31.6325L22.0592 31.8354C22.3496 32.0108 22.5772 32.4247 22.5772 32.7756V33.1814C22.5772 33.4829 22.7812 33.853 23.0297 34.0038L24.6307 34.9715C24.6621 34.9907 24.6726 35.0318 24.6543 35.0647C24.6412 35.0866 24.6203 35.0976 24.5967 35.0976Z" fill="#2AEDFF"/>
<path d="M25.2065 34.8176C25.196 34.8176 25.1855 34.8148 25.1751 34.8093L23.5872 33.7457C23.2968 33.5702 23.0692 33.1563 23.0692 32.8026V32.3997C23.0692 32.0981 22.8651 31.728 22.6166 31.5773L22.2818 31.3744C22.2504 31.3552 22.2399 31.3141 22.2582 31.2812C22.2765 31.2483 22.3158 31.2373 22.3472 31.2565L22.682 31.4594C22.9724 31.6348 23.2 32.0488 23.2 32.3997V32.8026C23.2 33.1042 23.404 33.4743 23.6526 33.6251L25.2379 34.6887C25.2692 34.7079 25.2797 34.749 25.2614 34.7819C25.2509 34.8066 25.23 34.8176 25.2065 34.8176Z" fill="#2AEDFF"/>
<path d="M25.8421 34.3466C25.8316 34.3466 25.8212 34.3439 25.8107 34.3384L24.2097 33.3707C23.9193 33.1952 23.6917 32.7813 23.6917 32.4304V32.0247C23.6917 31.7231 23.4877 31.353 23.2392 31.2023L22.9043 30.9994C22.8729 30.9802 22.8625 30.9391 22.8808 30.9062C22.8991 30.8733 22.9383 30.8623 22.9697 30.8815L23.3046 31.0844C23.5949 31.2598 23.8225 31.6738 23.8225 32.0247V32.4304C23.8225 32.7319 24.0266 33.102 24.2751 33.2528L25.8761 34.2205C25.9075 34.2397 25.918 34.2808 25.8997 34.3137C25.8866 34.3356 25.8656 34.3466 25.8421 34.3466Z" fill="#2AEDFF"/>
<path d="M26.4647 33.9708C26.4542 33.9708 26.4437 33.9681 26.4333 33.9626L24.8323 32.9949C24.5419 32.8194 24.3143 32.4055 24.3143 32.0546V31.6516C24.3143 31.3501 24.1102 30.98 23.8617 30.8292L23.5269 30.6263C23.4955 30.6072 23.485 30.566 23.5033 30.5331C23.5216 30.5002 23.5609 30.4893 23.5923 30.5085L23.9271 30.7113C24.2175 30.8868 24.4451 31.3007 24.4451 31.6544V32.0573C24.4451 32.3589 24.6491 32.729 24.8977 32.8798L26.4987 33.8475C26.5301 33.8667 26.5405 33.9078 26.5222 33.9407C26.5091 33.9599 26.4882 33.9708 26.4647 33.9708Z" fill="#2AEDFF"/>
<path d="M26.9878 33.6495C26.9773 33.6495 26.9669 33.6467 26.9564 33.6413L25.4548 32.6187C25.1644 32.4433 24.9369 32.0293 24.9369 31.6757V31.2727C24.9369 30.9712 24.7328 30.6011 24.4843 30.4503L24.1494 30.2474C24.118 30.2282 24.1076 30.1871 24.1259 30.1542C24.1442 30.1213 24.1834 30.1104 24.2148 30.1296L24.5497 30.3324C24.8401 30.5079 25.0677 30.9218 25.0677 31.2727V31.6757C25.0677 31.9772 25.2717 32.3473 25.5202 32.4981L27.0218 33.5206C27.0532 33.5398 27.0637 33.581 27.0454 33.6138C27.0323 33.6358 27.0114 33.6495 26.9878 33.6495Z" fill="#2AEDFF"/>
<path d="M27.647 33.3129C27.6365 33.3129 27.6261 33.3101 27.6156 33.3046L26.0774 32.2437C25.787 32.0683 25.5594 31.6543 25.5594 31.3034V30.8977C25.5594 30.5962 25.3554 30.2261 25.1068 30.0753L24.772 29.8724C24.7406 29.8532 24.7301 29.8121 24.7485 29.7792C24.7668 29.7463 24.806 29.7354 24.8374 29.7546L25.1722 29.9574C25.4626 30.1329 25.6902 30.5468 25.6902 30.8977V31.3034C25.6902 31.605 25.8943 31.9751 26.1428 32.1258L27.681 33.1868C27.7124 33.2059 27.7228 33.2471 27.7045 33.28C27.6915 33.2992 27.6705 33.3129 27.647 33.3129Z" fill="#2AEDFF"/>
<path d="M28.3323 32.8439C28.3219 32.8439 28.3114 32.8411 28.3009 32.8356L26.6999 31.8679C26.4096 31.6925 26.182 31.2785 26.182 30.9276V30.5247C26.182 30.2231 25.9779 29.853 25.7294 29.7023L25.3946 29.4994C25.3632 29.4802 25.3527 29.4391 25.371 29.4062C25.3893 29.3733 25.4286 29.3623 25.46 29.3815L25.7948 29.5844C26.0852 29.7598 26.3128 30.1738 26.3128 30.5274V30.9304C26.3128 31.2319 26.5168 31.602 26.7653 31.7528L28.3663 32.7205C28.3977 32.7397 28.4082 32.7808 28.3899 32.8137C28.3768 32.8302 28.3533 32.8439 28.3323 32.8439Z" fill="#2AEDFF"/>
<path d="M28.9551 32.4687C28.9447 32.4687 28.9342 32.4659 28.9237 32.4605L27.3227 31.4928C27.0324 31.3173 26.8048 30.9034 26.8048 30.5497V30.1467C26.8048 29.8452 26.6007 29.4751 26.3522 29.3243L26.0174 29.1215C25.986 29.1023 25.9755 29.0612 25.9938 29.0283C26.0121 28.9954 26.0514 28.9844 26.0828 29.0036L26.4176 29.2064C26.708 29.3819 26.9356 29.7958 26.9356 30.1467V30.5497C26.9356 30.8513 27.1396 31.2214 27.3881 31.3721L28.9891 32.3398C29.0205 32.359 29.031 32.4001 29.0127 32.433C28.9996 32.455 28.9761 32.4687 28.9551 32.4687Z" fill="#2AEDFF"/>
<path d="M29.5774 32.0927C29.567 32.0927 29.5565 32.09 29.5461 32.0845L27.9451 31.1168C27.6547 30.9413 27.4271 30.5274 27.4271 30.1765V29.7708C27.4271 29.4692 27.223 29.0991 26.9745 28.9483L26.6397 28.7455C26.6083 28.7263 26.5978 28.6852 26.6161 28.6523C26.6344 28.6194 26.6737 28.6084 26.7051 28.6276L27.0399 28.8305C27.3303 29.0059 27.5579 29.4199 27.5579 29.7708V30.1765C27.5579 30.478 27.7619 30.8481 28.0105 30.9989L29.6115 31.9666C29.6429 31.9858 29.6533 32.0269 29.635 32.0598C29.6219 32.079 29.5984 32.0927 29.5774 32.0927Z" fill="#2AEDFF"/>
<path d="M30.1768 31.7259C30.1664 31.7259 30.1559 31.7232 30.1454 31.7177L28.5654 30.739C28.275 30.5636 28.0474 30.1496 28.0474 29.7987V29.3958C28.0474 29.0942 27.8433 28.7241 27.5948 28.5733L27.26 28.3705C27.2286 28.3513 27.2181 28.3102 27.2364 28.2773C27.2547 28.2444 27.294 28.2334 27.3254 28.2526L27.6602 28.4555C27.9506 28.6309 28.1782 29.0449 28.1782 29.3985V29.8015C28.1782 30.103 28.3822 30.4731 28.6308 30.6239L30.2108 31.6026C30.2422 31.6218 30.2527 31.6629 30.2344 31.6958C30.2239 31.715 30.2004 31.7259 30.1768 31.7259Z" fill="#2AEDFF"/>
<path d="M30.8725 31.3966C30.862 31.3966 30.8516 31.3938 30.8411 31.3883L29.1904 30.3658C28.9 30.1904 28.6725 29.7764 28.6725 29.4228V29.0198C28.6725 28.7182 28.4684 28.3481 28.2199 28.1974L27.885 27.9945C27.8536 27.9753 27.8432 27.9342 27.8615 27.9013C27.8798 27.8684 27.919 27.8574 27.9504 27.8766L28.2853 28.0795C28.5757 28.2549 28.8033 28.6689 28.8033 29.0198V29.4228C28.8033 29.7243 29.0073 30.0944 29.2558 30.2452L30.9065 31.2677C30.9379 31.2869 30.9484 31.328 30.9301 31.3609C30.917 31.3828 30.8961 31.3966 30.8725 31.3966Z" fill="#2AEDFF"/>
<path d="M31.4429 30.9638C31.4324 30.9638 31.4219 30.9611 31.4115 30.9556L29.8105 29.9879C29.5201 29.8124 29.2925 29.3985 29.2925 29.0476V28.6419C29.2925 28.3403 29.0885 27.9702 28.8399 27.8194L28.5051 27.6166C28.4737 27.5974 28.4632 27.5563 28.4815 27.5234C28.4999 27.4905 28.5391 27.4795 28.5705 27.4987L28.9053 27.7016C29.1957 27.877 29.4233 28.291 29.4233 28.6419V29.0476C29.4233 29.3491 29.6274 29.7192 29.8759 29.87L31.4769 30.8377C31.5083 30.8569 31.5187 30.898 31.5004 30.9309C31.4873 30.9528 31.4664 30.9638 31.4429 30.9638Z" fill="#2AEDFF"/>
<path d="M32.0654 30.588C32.055 30.588 32.0445 30.5853 32.034 30.5798L30.433 29.6121C30.1427 29.4366 29.9151 29.0227 29.9151 28.6718V28.2688C29.9151 27.9673 29.711 27.5972 29.4625 27.4464L29.1276 27.2435C29.0963 27.2243 29.0858 27.1832 29.1041 27.1503C29.1224 27.1174 29.1617 27.1065 29.193 27.1257L29.5279 27.3285C29.8183 27.504 30.0459 27.9179 30.0459 28.2715V28.6745C30.0459 28.9761 30.2499 29.3462 30.4984 29.4969L32.0994 30.4646C32.1308 30.4838 32.1413 30.525 32.123 30.5579C32.1099 30.577 32.089 30.588 32.0654 30.588Z" fill="#2AEDFF"/>
<path d="M32.6882 30.2128C32.6777 30.2128 32.6672 30.2101 32.6568 30.2046L31.0558 29.2369C30.7654 29.0614 30.5378 28.6475 30.5378 28.2939V27.8909C30.5378 27.5893 30.3338 27.2192 30.0852 27.0685L29.7504 26.8656C29.719 26.8464 29.7085 26.8053 29.7268 26.7724C29.7452 26.7395 29.7844 26.7285 29.8158 26.7477L30.1506 26.9506C30.441 27.126 30.6686 27.54 30.6686 27.8909V28.2939C30.6686 28.5954 30.8727 28.9655 31.1212 29.1163L32.7222 30.084C32.7536 30.1032 32.764 30.1443 32.7457 30.1772C32.7326 30.2019 32.7117 30.2128 32.6882 30.2128Z" fill="#2AEDFF"/>
<path d="M33.3105 29.8368C33.3001 29.8368 33.2896 29.8341 33.2791 29.8286L31.6782 28.8609C31.3878 28.6855 31.1602 28.2715 31.1602 27.9206V27.5149C31.1602 27.2133 30.9561 26.8433 30.7076 26.6925L30.3728 26.4896C30.3414 26.4704 30.3309 26.4293 30.3492 26.3964C30.3675 26.3635 30.4068 26.3526 30.4382 26.3717L30.773 26.5746C31.0634 26.7501 31.291 27.164 31.291 27.5149V27.9206C31.291 28.2222 31.495 28.5923 31.7436 28.743L33.3445 29.7107C33.3759 29.7299 33.3864 29.7711 33.3681 29.8039C33.355 29.8259 33.3341 29.8368 33.3105 29.8368Z" fill="#2AEDFF"/>
<path d="M33.9333 29.4611C33.9228 29.4611 33.9124 29.4583 33.9019 29.4528L32.3009 28.4851C32.0105 28.3097 31.7829 27.8957 31.7829 27.5448V27.1419C31.7829 26.8403 31.5789 26.4702 31.3304 26.3194L30.9955 26.1166C30.9641 26.0974 30.9537 26.0563 30.972 26.0234C30.9903 25.9905 31.0295 25.9795 31.0609 25.9987L31.3958 26.2016C31.6861 26.377 31.9137 26.791 31.9137 27.1446V27.5476C31.9137 27.8491 32.1178 28.2192 32.3663 28.37L33.9673 29.3377C33.9987 29.3569 34.0091 29.398 33.9908 29.4309C33.9778 29.4501 33.9568 29.4611 33.9333 29.4611Z" fill="#2AEDFF"/>
<path d="M15.891 36.6023C15.8675 36.6023 15.8466 36.5913 15.8335 36.5666C15.8152 36.5337 15.8256 36.4926 15.857 36.4734L17.458 35.5057C17.7091 35.355 17.9106 34.9849 17.9106 34.6833V34.2776C17.9106 33.9267 18.1382 33.5127 18.4286 33.3373L18.7634 33.1344C18.7948 33.1153 18.834 33.1262 18.8523 33.1591C18.8707 33.192 18.8602 33.2331 18.8288 33.2523L18.494 33.4552C18.2428 33.606 18.0414 33.976 18.0414 34.2776V34.6833C18.0414 35.0342 17.8138 35.4482 17.5234 35.6236L15.9224 36.5913C15.912 36.5995 15.9015 36.6023 15.891 36.6023Z" fill="#2AEDFF"/>
<path d="M15.2685 36.2275C15.2449 36.2275 15.224 36.2165 15.2109 36.1946C15.1926 36.1617 15.2031 36.1206 15.2345 36.1014L16.8355 35.1337C17.0866 34.9829 17.288 34.6128 17.288 34.3112V33.9055C17.288 33.5546 17.5156 33.1407 17.806 32.9652L18.1408 32.7624C18.1722 32.7432 18.2115 32.7541 18.2298 32.787C18.2481 32.8199 18.2376 32.8611 18.2062 32.8803L17.8714 33.0831C17.6203 33.2339 17.4188 33.604 17.4188 33.9055V34.3112C17.4188 34.6621 17.1912 35.0761 16.9009 35.2515L15.2999 36.2192C15.292 36.2247 15.2789 36.2275 15.2685 36.2275Z" fill="#2AEDFF"/>
<path d="M14.6459 35.8507C14.6224 35.8507 14.6014 35.8397 14.5884 35.8178C14.57 35.7849 14.5805 35.7438 14.6119 35.7246L16.2129 34.7569C16.464 34.6061 16.6655 34.236 16.6655 33.9345V33.5315C16.6655 33.1806 16.8931 32.7667 17.1834 32.5912L17.5183 32.3883C17.5497 32.3692 17.5889 32.3801 17.6072 32.413C17.6255 32.4459 17.6151 32.487 17.5837 32.5062L17.2488 32.7091C16.9977 32.8599 16.7963 33.23 16.7963 33.5315V33.9345C16.7963 34.2854 16.5687 34.6993 16.2783 34.8748L14.6773 35.8425C14.6695 35.848 14.6564 35.8507 14.6459 35.8507Z" fill="#2AEDFF"/>
<path d="M14.0234 35.4765C13.9998 35.4765 13.9789 35.4655 13.9658 35.4436C13.9475 35.4107 13.9579 35.3696 13.9893 35.3504L15.5903 34.3827C15.8415 34.2319 16.0429 33.8618 16.0429 33.5603V33.1545C16.0429 32.8037 16.2705 32.3897 16.5609 32.2143L16.8957 32.0114C16.9271 31.9922 16.9664 32.0032 16.9847 32.0361C17.003 32.069 16.9925 32.1101 16.9611 32.1293L16.6263 32.3321C16.3751 32.4829 16.1737 32.853 16.1737 33.1545V33.5603C16.1737 33.9112 15.9461 34.3251 15.6557 34.5006L14.0547 35.4683C14.0469 35.471 14.0338 35.4765 14.0234 35.4765Z" fill="#2AEDFF"/>
<path d="M13.4008 35.0976C13.3772 35.0976 13.3563 35.0866 13.3432 35.0647C13.3249 35.0318 13.3354 34.9907 13.3668 34.9715L14.9678 34.0038C15.2189 33.853 15.4203 33.4829 15.4203 33.1814V32.7756C15.4203 32.4247 15.6479 32.0108 15.9383 31.8354L16.2732 31.6325C16.3046 31.6133 16.3438 31.6243 16.3621 31.6572C16.3804 31.6901 16.37 31.7312 16.3386 31.7504L16.0037 31.9532C15.7526 32.104 15.5511 32.4741 15.5511 32.7756V33.1814C15.5511 33.5323 15.3236 33.9462 15.0332 34.1217L13.4322 35.0894C13.4243 35.0948 13.4139 35.0976 13.4008 35.0976Z" fill="#2AEDFF"/>
<path d="M12.7778 34.7216C12.7543 34.7216 12.7333 34.7106 12.7203 34.686C12.7019 34.6531 12.7124 34.612 12.7438 34.5928L14.3448 33.6251C14.5959 33.4743 14.7974 33.1042 14.7974 32.8026V32.3997C14.7974 32.0488 15.025 31.6348 15.3153 31.4594L15.6502 31.2565C15.6816 31.2373 15.7208 31.2483 15.7391 31.2812C15.7574 31.3141 15.747 31.3552 15.7156 31.3744L15.3807 31.5773C15.1296 31.728 14.9282 32.0981 14.9282 32.3997V32.8026C14.9282 33.1535 14.7006 33.5675 14.4102 33.7429L12.8092 34.7106C12.8013 34.7189 12.7909 34.7216 12.7778 34.7216Z" fill="#2AEDFF"/>
<path d="M12.1577 34.3466C12.1342 34.3466 12.1133 34.3356 12.1002 34.3137C12.0819 34.2808 12.0923 34.2397 12.1237 34.2205L13.7247 33.2528C13.9759 33.102 14.1773 32.7319 14.1773 32.4304V32.0247C14.1773 31.6738 14.4049 31.2598 14.6953 31.0844L15.0301 30.8815C15.0615 30.8623 15.1008 30.8733 15.1191 30.9062C15.1374 30.9391 15.1269 30.9802 15.0955 30.9994L14.7607 31.2023C14.5095 31.353 14.3081 31.7231 14.3081 32.0247V32.4304C14.3081 32.7813 14.0805 33.1952 13.7901 33.3707L12.1891 34.3384C12.1787 34.3439 12.1682 34.3466 12.1577 34.3466Z" fill="#2AEDFF"/>
<path d="M11.5352 33.9708C11.5116 33.9708 11.4907 33.9599 11.4776 33.9379C11.4593 33.905 11.4698 33.8639 11.5012 33.8447L13.1022 32.877C13.3533 32.7262 13.5547 32.3562 13.5547 32.0546V31.6516C13.5547 31.3007 13.7823 30.8868 14.0727 30.7113L14.4076 30.5085C14.439 30.4893 14.4782 30.5002 14.4965 30.5331C14.5148 30.566 14.5044 30.6072 14.473 30.6263L14.1381 30.8292C13.887 30.98 13.6855 31.3501 13.6855 31.6516V32.0546C13.6855 32.4055 13.458 32.8194 13.1676 32.9949L11.5666 33.9626C11.5561 33.9681 11.5457 33.9708 11.5352 33.9708Z" fill="#2AEDFF"/>
<path d="M10.9126 33.5958C10.8891 33.5958 10.8682 33.5849 10.8551 33.5629C10.8368 33.53 10.8472 33.4889 10.8786 33.4697L12.4796 32.502C12.7308 32.3512 12.9322 31.9812 12.9322 31.6796V31.2766C12.9322 30.9257 13.1598 30.5118 13.4502 30.3363L13.785 30.1335C13.8164 30.1143 13.8556 30.1252 13.874 30.1581C13.8923 30.191 13.8818 30.2322 13.8504 30.2513L13.5156 30.4542C13.2644 30.605 13.063 30.9751 13.063 31.2766V31.6796C13.063 32.0305 12.8354 32.4444 12.545 32.6199L10.944 33.5876C10.9336 33.5931 10.9231 33.5958 10.9126 33.5958Z" fill="#2AEDFF"/>
<path d="M10.2901 33.2197C10.2665 33.2197 10.2456 33.2087 10.2325 33.1868C10.2142 33.1539 10.2247 33.1127 10.2561 33.0936L11.8571 32.1258C12.1082 31.9751 12.3096 31.605 12.3096 31.3034V30.8977C12.3096 30.5468 12.5372 30.1329 12.8276 29.9574L13.1625 29.7546C13.1938 29.7354 13.2331 29.7463 13.2514 29.7792C13.2697 29.8121 13.2592 29.8532 13.2279 29.8724L12.893 30.0753C12.6419 30.2261 12.4404 30.5962 12.4404 30.8977V31.3034C12.4404 31.6543 12.2128 32.0683 11.9225 32.2437L10.3215 33.2114C10.311 33.2169 10.3005 33.2197 10.2901 33.2197Z" fill="#2AEDFF"/>
<path d="M9.668 32.8439C9.64446 32.8439 9.62353 32.8329 9.61045 32.811C9.59214 32.7781 9.60261 32.737 9.634 32.7178L11.235 31.7501C11.4861 31.5993 11.6876 31.2292 11.6876 30.9276V30.5247C11.6876 30.1738 11.9152 29.7598 12.2055 29.5844L12.5404 29.3815C12.5718 29.3623 12.611 29.3733 12.6293 29.4062C12.6476 29.4391 12.6372 29.4802 12.6058 29.4994L12.2709 29.7023C12.0198 29.853 11.8184 30.2231 11.8184 30.5247V30.9276C11.8184 31.2785 11.5908 31.6925 11.3004 31.8679L9.6994 32.8356C9.68894 32.8411 9.67847 32.8439 9.668 32.8439Z" fill="#2AEDFF"/>
<path d="M9.04471 32.4687C9.02117 32.4687 9.00024 32.4577 8.98716 32.433C8.96885 32.4001 8.97931 32.359 9.0107 32.3398L10.6117 31.3721C10.8628 31.2214 11.0643 30.8513 11.0643 30.5497V30.1467C11.0643 29.7958 11.2919 29.3819 11.5822 29.2064L11.9171 29.0036C11.9485 28.9844 11.9877 28.9954 12.006 29.0283C12.0243 29.0612 12.0139 29.1023 11.9825 29.1215L11.6476 29.3243C11.3965 29.4751 11.1951 29.8452 11.1951 30.1467V30.5497C11.1951 30.9006 10.9675 31.3146 10.6771 31.49L9.0761 32.4577C9.06826 32.4659 9.05518 32.4687 9.04471 32.4687Z" fill="#2AEDFF"/>
<path d="M8.4224 32.0927C8.39885 32.0927 8.37793 32.0817 8.36485 32.0598C8.34653 32.0269 8.357 31.9858 8.38839 31.9666L9.98938 30.9989C10.2405 30.8481 10.442 30.478 10.442 30.1765V29.7708C10.442 29.4199 10.6695 29.0059 10.9599 28.8305L11.2948 28.6276C11.3262 28.6084 11.3654 28.6194 11.3837 28.6523C11.402 28.6852 11.3916 28.7263 11.3602 28.7455L11.0253 28.9483C10.7742 29.0991 10.5728 29.4692 10.5728 29.7708V30.1765C10.5728 30.5274 10.3452 30.9413 10.0548 31.1168L8.45379 32.0845C8.44594 32.09 8.43286 32.0927 8.4224 32.0927Z" fill="#2AEDFF"/>
<path d="M7.79941 31.7169C7.77587 31.7169 7.75494 31.7059 7.74186 31.684C7.72355 31.6511 7.73401 31.61 7.7654 31.5908L9.3664 30.6231C9.61753 30.4723 9.81897 30.1022 9.81897 29.8007V29.3977C9.81897 29.0468 10.0466 28.6329 10.3369 28.4574L10.6718 28.2546C10.7032 28.2354 10.7424 28.2463 10.7607 28.2792C10.779 28.3121 10.7686 28.3532 10.7372 28.3724L10.4023 28.5753C10.1512 28.7261 9.94977 29.0962 9.94977 29.3977V29.8007C9.94977 30.1516 9.72218 30.5655 9.4318 30.741L7.8308 31.7087C7.82296 31.7114 7.80988 31.7169 7.79941 31.7169Z" fill="#2AEDFF"/>
<path d="M7.17704 31.339C7.15349 31.339 7.13256 31.328 7.11948 31.3061C7.10117 31.2732 7.11164 31.2321 7.14303 31.2129L8.74402 30.2452C8.99516 30.0944 9.19659 29.7243 9.19659 29.4228V29.0198C9.19659 28.6689 9.42419 28.2549 9.71457 28.0795L10.0494 27.8766C10.0808 27.8574 10.12 27.8684 10.1384 27.9013C10.1567 27.9342 10.1462 27.9753 10.1148 27.9945L9.77997 28.1974C9.52883 28.3481 9.3274 28.7182 9.3274 29.0198V29.4228C9.3274 29.7737 9.0998 30.1876 8.80942 30.3631L7.20843 31.3308C7.20058 31.3362 7.19012 31.339 7.17704 31.339Z" fill="#2AEDFF"/>
<path d="M6.55448 30.9628C6.53093 30.9628 6.51001 30.9519 6.49693 30.9299C6.47861 30.897 6.48908 30.8559 6.52047 30.8367L8.12147 29.869C8.37261 29.7182 8.57404 29.3482 8.57404 29.0466V28.6409C8.57404 28.29 8.80163 27.876 9.09201 27.7006L9.42686 27.4977C9.45825 27.4785 9.49749 27.4895 9.5158 27.5224C9.53411 27.5553 9.52365 27.5964 9.49226 27.6156L9.15741 27.8185C8.90627 27.9692 8.70484 28.3393 8.70484 28.6409V29.0466C8.70484 29.3975 8.47725 29.8114 8.18687 29.9869L6.58587 30.9546C6.57802 30.9601 6.56756 30.9628 6.55448 30.9628Z" fill="#2AEDFF"/>
<path d="M5.93192 30.588C5.90837 30.588 5.88745 30.577 5.87437 30.5551C5.85605 30.5222 5.86652 30.4811 5.89792 30.4619L7.49891 29.4942C7.75005 29.3434 7.95148 28.9733 7.95148 28.6718V28.2688C7.95148 27.9179 8.17907 27.504 8.46945 27.3285L8.8043 27.1257C8.83569 27.1065 8.87493 27.1174 8.89324 27.1503C8.91155 27.1832 8.90109 27.2243 8.8697 27.2435L8.53485 27.4464C8.28371 27.5972 8.08228 27.9673 8.08228 28.2688V28.6718C8.08228 29.0227 7.85469 29.4366 7.56431 29.6121L5.96332 30.5798C5.95547 30.5853 5.945 30.588 5.93192 30.588Z" fill="#2AEDFF"/>
<path d="M5.31217 30.2128C5.28862 30.2128 5.2677 30.2019 5.25462 30.1772C5.2363 30.1443 5.24677 30.1032 5.27816 30.084L6.87916 29.1163C7.1303 28.9655 7.33173 28.5954 7.33173 28.2939V27.8909C7.33173 27.54 7.55932 27.126 7.8497 26.9506L8.18455 26.7477C8.21594 26.7285 8.25518 26.7395 8.27349 26.7724C8.2918 26.8053 8.28134 26.8464 8.24995 26.8656L7.9151 27.0685C7.66396 27.2192 7.46253 27.5893 7.46253 27.8909V28.2939C7.46253 28.6448 7.23494 29.0587 6.94456 29.2342L5.34356 30.2019C5.3331 30.2101 5.32263 30.2128 5.31217 30.2128Z" fill="#2AEDFF"/>
<path d="M4.68912 29.8368C4.66558 29.8368 4.64465 29.8259 4.63157 29.8039C4.61326 29.7711 4.62373 29.7299 4.65512 29.7107L6.25611 28.743C6.50725 28.5923 6.70868 28.2222 6.70868 27.9206V27.5149C6.70868 27.164 6.93627 26.7501 7.22665 26.5746L7.5615 26.3717C7.59289 26.3526 7.63213 26.3635 7.65044 26.3964C7.66875 26.4293 7.65829 26.4704 7.6269 26.4896L7.29205 26.6925C7.04091 26.8433 6.83948 27.2133 6.83948 27.5149V27.9206C6.83948 28.2715 6.61189 28.6855 6.32151 28.8609L4.72052 29.8286C4.71005 29.8341 4.69958 29.8368 4.68912 29.8368Z" fill="#2AEDFF"/>
<path d="M4.06656 29.4611C4.04302 29.4611 4.02209 29.4501 4.00901 29.4282C3.9907 29.3953 4.00116 29.3541 4.03255 29.335L5.63355 28.3672C5.88469 28.2165 6.08611 27.8464 6.08611 27.5448V27.1419C6.08611 26.791 6.31371 26.377 6.60409 26.2016L6.93893 25.9987C6.97033 25.9795 7.00957 25.9905 7.02788 26.0234C7.04619 26.0563 7.03573 26.0974 7.00433 26.1166L6.66949 26.3194C6.41835 26.4702 6.21691 26.8403 6.21691 27.1419V27.5448C6.21691 27.8957 5.98933 28.3097 5.69895 28.4851L4.09795 29.4528C4.08749 29.4583 4.07703 29.4611 4.06656 29.4611Z" fill="#2AEDFF"/>
<path d="M12.189 16.2903L10.0168 21.9141L10.6449 22.1805L12.817 16.5567L12.189 16.2903Z" fill="#2AEDFF"/>
<path d="M24.126 15.8833C25.2891 15.8833 26.2319 14.8953 26.2319 13.6765C26.2319 12.4577 25.2891 11.4697 24.126 11.4697C22.963 11.4697 22.0201 12.4577 22.0201 13.6765C22.0201 14.8953 22.963 15.8833 24.126 15.8833Z" fill="url(#paint7_radial_883_22608)"/>
<path d="M13.2465 16.9416C13.2465 21.2263 15.682 24.7024 18.6851 24.7024C21.6883 24.7024 24.1238 21.2291 24.1238 16.9416C24.1238 12.6541 21.6883 11.3711 18.6851 11.3711C15.682 11.3711 13.2465 12.6541 13.2465 16.9416Z" fill="url(#paint8_radial_883_22608)"/>
<path d="M13.2465 16.9416C13.2465 21.2263 15.682 24.7024 18.6851 24.7024C21.6883 24.7024 24.1238 21.2291 24.1238 16.9416C24.1238 12.6541 21.6883 11.3711 18.6851 11.3711C15.682 11.3711 13.2465 12.6541 13.2465 16.9416Z" fill="url(#paint9_linear_883_22608)"/>
<path d="M18.6848 15.922C20.7349 15.922 22.3969 14.9168 22.3969 13.6768C22.3969 12.4368 20.7349 11.4316 18.6848 11.4316C16.6346 11.4316 14.9727 12.4368 14.9727 13.6768C14.9727 14.9168 16.6346 15.922 18.6848 15.922Z" fill="#2355FE"/>
<path d="M21.3116 12.6841C19.8623 11.8068 17.5106 11.8068 16.0613 12.6841C15.4622 13.0459 15.1117 13.501 15.007 13.9725C14.8579 13.3036 15.2111 12.5991 16.0613 12.0837C17.5106 11.2065 19.8623 11.2065 21.3116 12.0837C22.1618 12.5991 22.5124 13.3009 22.3659 13.9698C22.2612 13.5037 21.9107 13.0487 21.3116 12.6841Z" fill="#3160FE"/>
<path d="M22.9701 8.33616L22.2978 7.12448C21.9027 6.69408 21.5862 6.12387 21.4266 5.55093L20.7465 4.32279L21.7249 3.7334C21.7562 3.71147 21.7876 3.69228 21.8243 3.67309C22.1016 3.53602 22.473 3.57166 22.8785 3.81838C23.7444 4.34198 24.4455 5.61398 24.4455 6.66118C24.4455 7.18479 24.2702 7.55213 23.9877 7.7221L22.9701 8.33616Z" fill="url(#paint10_radial_883_22608)"/>
<path d="M22.978 8.33767C23.5898 7.96749 23.5898 6.76714 22.9779 5.6566C22.3661 4.54606 21.3741 3.94588 20.7622 4.31606C20.1504 4.68624 20.1504 5.8866 20.7623 6.99713C21.3742 8.10767 22.3662 8.70785 22.978 8.33767Z" fill="#97C9FF"/>
<path d="M18.4704 14.1289C21.5348 14.1289 24.019 11.5257 24.019 8.31446C24.019 5.10322 21.5348 2.5 18.4704 2.5C15.4061 2.5 12.9219 5.10322 12.9219 8.31446C12.9219 11.5257 15.4061 14.1289 18.4704 14.1289Z" fill="url(#paint11_radial_883_22608)"/>
<path d="M18.4704 14.1289C21.5348 14.1289 24.019 11.5257 24.019 8.31446C24.019 5.10322 21.5348 2.5 18.4704 2.5C15.4061 2.5 12.9219 5.10322 12.9219 8.31446C12.9219 11.5257 15.4061 14.1289 18.4704 14.1289Z" fill="url(#paint12_linear_883_22608)"/>
<path d="M15.3652 12.2453L14.6929 11.0337C14.2979 10.6033 13.9813 10.0331 13.8218 9.46011L13.1416 8.23197L14.12 7.64258C14.1514 7.62065 14.1828 7.60146 14.2194 7.58227C14.4967 7.4452 14.8682 7.48083 15.2737 7.72756C16.1396 8.25116 16.8406 9.52316 16.8406 10.5704C16.8406 11.094 16.6654 11.4613 16.3828 11.6313L15.3652 12.2453Z" fill="url(#paint13_radial_883_22608)"/>
<path d="M15.372 12.2439C15.9839 11.8737 15.9838 10.6734 15.372 9.56285C14.7601 8.45231 13.7681 7.85213 13.1563 8.22231C12.5444 8.59249 12.5445 9.79285 13.1563 10.9034C13.7682 12.0139 14.7602 12.6141 15.372 12.2439Z" fill="#97C9FF"/>
<path d="M15.7604 11.1925C15.7604 10.1453 15.0593 8.87325 14.1934 8.34965C13.8926 8.16872 13.6127 8.10019 13.3746 8.13308C13.6284 8.07551 13.9345 8.13582 14.2641 8.33594C15.13 8.85955 15.8311 10.1315 15.8311 11.1787C15.8311 11.8614 15.5328 12.2808 15.0829 12.3411C15.491 12.2479 15.7604 11.8394 15.7604 11.1925Z" fill="#D2FFFF"/>
<path d="M15.0553 11.6696C15.492 11.4054 15.4917 10.5482 15.0546 9.75494C14.6176 8.9617 13.9093 8.53283 13.4727 8.79702C13.036 9.06122 13.0363 9.91844 13.4733 10.7117C13.9104 11.5049 14.6187 11.9338 15.0553 11.6696Z" fill="#2355FE"/>
<path d="M13.623 8.73438C13.5079 8.87693 13.4398 9.09075 13.4398 9.36489C13.4398 10.1133 13.9421 11.0234 14.5595 11.3963C14.8002 11.5415 15.0199 11.5827 15.203 11.5388C15.0042 11.7855 14.6589 11.8212 14.2665 11.5854C13.6491 11.2126 13.1469 10.3024 13.1469 9.55405C13.1469 9.09624 13.3352 8.80565 13.623 8.73438Z" fill="#3160FE"/>
<path d="M23.0832 10.369C23.6012 9.0649 23.4394 7.75395 22.7218 7.44093C22.0042 7.1279 21.0026 7.93132 20.4845 9.23541C19.9665 10.5395 20.1283 11.8504 20.8459 12.1635C21.5635 12.4765 22.5652 11.6731 23.0832 10.369Z" fill="#2355FE"/>
<path d="M20.9215 10.0766C20.9738 10.4933 21.2721 10.6222 21.5912 10.3672C21.9078 10.1123 22.1249 9.56949 22.0726 9.1528C22.0202 8.73612 21.722 8.60727 21.4029 8.86222C21.0863 9.11991 20.8718 9.6627 20.9215 10.0766Z" fill="#2AEDFF"/>
<path d="M21.62 11.7027C22.4938 11.0036 23.0876 9.50681 22.9463 8.36366C22.8888 7.89763 22.7161 7.56318 22.4755 7.37402C22.9333 7.41789 23.2786 7.82635 23.3649 8.52814C23.5062 9.6713 22.9123 11.1653 22.0386 11.8671C21.5206 12.2811 21.021 12.3249 20.6704 12.0536C20.9556 12.0837 21.2852 11.9713 21.62 11.7027Z" fill="#3160FE"/>
<path d="M21.9655 11.8309C22.8392 11.1319 23.4331 9.63511 23.2918 8.49195C23.2264 7.96287 23.0145 7.60101 22.7189 7.43652C23.0537 7.58182 23.297 7.95738 23.3677 8.53033C23.5089 9.67348 22.9151 11.1675 22.0414 11.8693C21.5731 12.2449 21.1179 12.3162 20.7752 12.1215C21.1074 12.2668 21.5286 12.1818 21.9655 11.8309Z" fill="#2AEDFF"/>
<path d="M12.4954 18.6353C13.6585 18.6353 14.6013 17.6473 14.6013 16.4285C14.6013 15.2097 13.6585 14.2217 12.4954 14.2217C11.3324 14.2217 10.3895 15.2097 10.3895 16.4285C10.3895 17.6473 11.3324 18.6353 12.4954 18.6353Z" fill="url(#paint14_radial_883_22608)"/>
<path d="M12.4954 18.6353C13.6585 18.6353 14.6013 17.6473 14.6013 16.4285C14.6013 15.2097 13.6585 14.2217 12.4954 14.2217C11.3324 14.2217 10.3895 15.2097 10.3895 16.4285C10.3895 17.6473 11.3324 18.6353 12.4954 18.6353Z" fill="url(#paint15_linear_883_22608)"/>
<path d="M9.13677 23.7426C9.25711 24.7925 10.1413 26.78 10.9418 26.6786C11.7423 26.5771 12.1556 24.4279 12.0353 23.3807C11.915 22.3308 11.1694 21.5632 10.3689 21.6619C9.56842 21.7633 9.01644 22.6926 9.13677 23.7426Z" fill="url(#paint16_radial_883_22608)"/>
<path d="M9.13677 23.7426C9.25711 24.7925 10.1413 26.78 10.9418 26.6786C11.7423 26.5771 12.1556 24.4279 12.0353 23.3807C11.915 22.3308 11.1694 21.5632 10.3689 21.6619C9.56842 21.7633 9.01644 22.6926 9.13677 23.7426Z" fill="url(#paint17_linear_883_22608)"/>
<path d="M29.701 16.9936C29.824 16.9936 29.9417 16.9251 30.0018 16.8017C30.0882 16.629 30.0254 16.4124 29.858 16.322L25.5076 13.937C25.3427 13.8465 25.1361 13.9123 25.0497 14.0878C24.9634 14.2605 25.0262 14.477 25.1936 14.5675L29.544 16.9525C29.5938 16.9799 29.6487 16.9936 29.701 16.9936Z" fill="#2AEDFF"/>
<path d="M29.6254 18.3179C30.5096 18.8251 32.5658 19.2253 32.9529 18.4851C33.3401 17.745 31.9118 16.144 31.0275 15.6341C30.1433 15.1269 29.1126 15.3161 28.7255 16.0563C28.3383 16.7964 28.7412 17.8108 29.6254 18.3179Z" fill="url(#paint18_radial_883_22608)"/>
<path d="M29.6254 18.3179C30.5096 18.8251 32.5658 19.2253 32.9529 18.4851C33.3401 17.745 31.9118 16.144 31.0275 15.6341C30.1433 15.1269 29.1126 15.3161 28.7255 16.0563C28.3383 16.7964 28.7412 17.8108 29.6254 18.3179Z" fill="url(#paint19_linear_883_22608)"/>
<path d="M22.5067 16.0893V25.5745C22.5067 25.7828 22.5747 25.9281 22.6794 25.9884L23.1555 26.2763L23.0822 25.9062L23.3124 25.7664C23.3255 25.8048 23.3386 25.8349 23.3491 25.8349C23.3778 25.8349 23.5793 25.8349 23.5793 25.8349L28.9761 22.6823L30.7419 21.6214L31.2573 21.1006L31.2677 11.3687L31.0951 11.2919V11.0315L31.4011 10.7985L30.9303 10.5134C30.8439 10.4586 30.7314 10.4613 30.6059 10.5353L22.9959 15.1052C22.7265 15.2752 22.5067 15.7138 22.5067 16.0893ZM23.1947 20.3549L23.2863 16.114L23.4511 15.8454L29.0938 12.3583L30.6503 11.3111V20.6729C30.6503 20.7579 30.6006 20.8593 30.5379 20.895L23.2052 25.2976L23.1947 20.3549Z" fill="url(#paint20_linear_883_22608)"/>
<path opacity="0.6" d="M22.6642 15.5L23.3941 15.9414L23.2868 16.1168L23.1952 20.3577L23.2057 25.3004L23.3417 25.2182C23.3417 25.3717 23.1586 26.1256 23.1586 26.2818L22.7714 26.0461L22.6825 25.9912C22.5779 25.9309 22.5098 25.7829 22.5098 25.5773V16.0921C22.5072 15.8948 22.5674 15.6809 22.6642 15.5Z" fill="#2355FE"/>
<path d="M22.9989 16.3877V25.8729C22.9989 26.2484 23.2186 26.4239 23.4881 26.2594L31.0981 21.6895C31.3675 21.5251 31.5872 21.0892 31.5872 20.7109V11.2257C31.5872 10.8501 31.3675 10.6747 31.0981 10.8392L23.4881 15.4091C23.2186 15.5735 22.9989 16.0122 22.9989 16.3877ZM23.4462 16.13C23.4462 16.045 23.4959 15.9436 23.5587 15.908L31.03 11.4204C31.0928 11.382 31.1425 11.4231 31.1425 11.5081V20.9658C31.1425 21.0508 31.0928 21.1522 31.03 21.1879L23.5587 25.6755C23.4959 25.7139 23.4462 25.6728 23.4462 25.5878V16.13Z" fill="url(#paint21_linear_883_22608)"/>
<path d="M22.9989 16.3877V25.8729C22.9989 26.2484 23.2186 26.4239 23.4881 26.2594L31.0981 21.6895C31.3675 21.5251 31.5872 21.0892 31.5872 20.7109V11.2257C31.5872 10.8501 31.3675 10.6747 31.0981 10.8392L23.4881 15.4091C23.2186 15.5735 22.9989 16.0122 22.9989 16.3877ZM23.4462 16.13C23.4462 16.045 23.4959 15.9436 23.5587 15.908L31.03 11.4204C31.0928 11.382 31.1425 11.4231 31.1425 11.5081V20.9658C31.1425 21.0508 31.0928 21.1522 31.03 21.1879L23.5587 25.6755C23.4959 25.7139 23.4462 25.6728 23.4462 25.5878V16.13Z" fill="url(#paint22_linear_883_22608)"/>
<path d="M30.5384 20.8951C30.6012 20.8567 30.6509 20.758 30.6509 20.673V11.6539L31.0302 11.4236C31.093 11.3852 31.1427 11.4264 31.1427 11.5113V20.9691C31.1427 21.0541 31.093 21.1555 31.0302 21.1911L23.5589 25.6788C23.4961 25.7171 23.4464 25.676 23.4464 25.591V25.1524L30.5384 20.8951Z" fill="#3160FE"/>
<path opacity="0.4" d="M23.4464 25.591C23.4464 25.676 23.4961 25.7171 23.5589 25.6788L31.0302 21.1911C31.093 21.1528 31.1427 21.0541 31.1427 20.9691V11.5113C31.1427 11.4264 31.093 11.3852 31.0302 11.4236L23.5589 15.9113C23.4961 15.9496 23.4464 16.0483 23.4464 16.1333V25.591Z" fill="#D2FFFF"/>
<g opacity="0.9">
<path opacity="0.9" d="M28.835 14.9401L29.5622 14.5015V14.3096L28.835 14.7482V14.9401Z" fill="#3160FE"/>
<path opacity="0.9" d="M28.215 15.3165L28.5786 15.0972V14.9053L28.215 15.1246V15.3165Z" fill="#3160FE"/>
<path opacity="0.9" d="M28.6207 15.5207L28.9294 15.3315V15.1396L28.6207 15.3288V15.5207Z" fill="#3160FE"/>
<path opacity="0.9" d="M28.103 15.8341L28.4667 15.6147V15.4229L28.103 15.6422V15.8341Z" fill="#3160FE"/>
<path opacity="0.9" d="M27.5036 16.647L28.9293 15.7808V15.5889L27.5036 16.4551V16.647Z" fill="#3160FE"/>
<path opacity="0.9" d="M28.6207 16.4203L28.9294 16.2311V16.042L28.6207 16.2284V16.4203Z" fill="#3160FE"/>
<path opacity="0.9" d="M28.103 16.7325L28.4667 16.5132V16.3213L28.103 16.5406V16.7325Z" fill="#3160FE"/>
<path opacity="0.9" d="M28.1447 17.1574L28.9295 16.6804V16.4912L28.1447 16.9655V17.1574Z" fill="#3160FE"/>
<path opacity="0.9" d="M27.6212 17.4757L27.9822 17.2563V17.0645L27.6212 17.2838V17.4757Z" fill="#3160FE"/>
<path opacity="0.9" d="M27.0928 17.794L27.4538 17.5747V17.3828L27.0928 17.6021V17.794Z" fill="#3160FE"/>
<path opacity="0.9" d="M26.2399 18.309L26.9279 17.895V17.7031L26.2399 18.1171V18.309Z" fill="#3160FE"/>
<path opacity="0.9" d="M26.6508 18.9591L27.0144 18.7397V18.5479L26.6508 18.7699V18.9591Z" fill="#3160FE"/>
<path opacity="0.9" d="M25.798 19.4767L26.486 19.0601V18.8682L25.798 19.2849V19.4767Z" fill="#3160FE"/>
<path opacity="0.9" d="M28.5684 17.8018L28.9294 17.5798V17.3906L28.5684 17.6099V17.8018Z" fill="#3160FE"/>
<path opacity="0.9" d="M28.0399 18.1202L28.4035 17.9009V17.709L28.0399 17.9283V18.1202Z" fill="#3160FE"/>
<path opacity="0.9" d="M27.1866 18.6351L27.8746 18.2212V18.0293L27.1866 18.4432V18.6351Z" fill="#3160FE"/>
<path opacity="0.9" d="M26.1351 18.8214L26.4988 18.6021V18.4102L26.1351 18.6295V18.8214Z" fill="#3160FE"/>
<path opacity="0.9" d="M25.6071 19.1427L25.9707 18.9233V18.7314L25.6071 18.9508V19.1427Z" fill="#3160FE"/>
<path opacity="0.9" d="M24.7543 19.6574L25.4423 19.2407V19.0488L24.7543 19.4655V19.6574Z" fill="#3160FE"/>
<path opacity="0.9" d="M28.5684 18.7012L28.9294 18.4819V18.29L28.5684 18.5093V18.7012Z" fill="#3160FE"/>
<path opacity="0.9" d="M27.7153 19.216L28.4033 18.7993V18.6074L27.7153 19.0241V19.216Z" fill="#3160FE"/>
<path opacity="0.9" d="M26.4155 17.3028L26.7791 17.0835V16.8916L26.4155 17.1109V17.3028Z" fill="#3160FE"/>
<path opacity="0.9" d="M26.9648 16.9718L27.3284 16.7524V16.5605L26.9648 16.7799V16.9718Z" fill="#3160FE"/>
<path opacity="0.9" d="M25.5622 17.8187L26.2502 17.4048V17.2129L25.5622 17.6296V17.8187Z" fill="#3160FE"/>
<path opacity="0.9" d="M28.6027 17.3307L28.9297 17.1306V16.9414L28.6027 17.1388V17.3307Z" fill="#3160FE"/>
<path opacity="0.9" d="M27.632 17.9168L28.4272 17.437V17.2451L27.632 17.7249V17.9168Z" fill="#3160FE"/>
<path opacity="0.9" d="M26.6586 18.5064L27.4538 18.0239V17.832L26.6586 18.3145V18.5064Z" fill="#3160FE"/>
<path opacity="0.9" d="M25.058 18.1256L25.3876 17.9282V17.7363L25.058 17.9337V18.1256Z" fill="#3160FE"/>
<path opacity="0.9" d="M28.1266 18.5172L28.9245 18.0347V17.8428L28.1266 18.3253V18.5172Z" fill="#3160FE"/>
<path opacity="0.9" d="M27.7078 18.7725L27.9511 18.6245V18.4326L27.7078 18.5807V18.7725Z" fill="#3160FE"/>
<path opacity="0.9" d="M27.2864 19.0274L27.5297 18.8794V18.6875L27.2864 18.8355V19.0274Z" fill="#3160FE"/>
<path opacity="0.9" d="M26.5068 19.4961L27.1085 19.1315V18.9424L26.5068 19.3042V19.4961Z" fill="#3160FE"/>
<path opacity="0.9" d="M26.3447 19.5957L26.9464 19.2339V19.042L26.3447 19.4039V19.5957Z" fill="#3160FE"/>
<path opacity="0.9" d="M25.832 18.5558L26.0779 18.4077V18.2158L25.832 18.3639V18.5558Z" fill="#3160FE"/>
<path opacity="0.9" d="M25.0548 19.0272L25.6565 18.6626V18.4707L25.0548 18.8353V19.0272Z" fill="#3160FE"/>
<path opacity="0.9" d="M29.311 18.7013L29.5543 18.5532V18.3613L29.311 18.5094V18.7013Z" fill="#3160FE"/>
<path opacity="0.9" d="M28.5315 19.17L29.1332 18.8081V18.6162L28.5315 18.9808V19.17Z" fill="#3160FE"/>
<path opacity="0.9" d="M27.7363 19.6522L28.338 19.2876V19.0957L27.7363 19.4603V19.6522Z" fill="#3160FE"/>
</g>
<defs>
<linearGradient id="paint0_linear_883_22608" x1="0.64664" y1="30.3426" x2="32.159" y2="30.3426" gradientUnits="userSpaceOnUse">
<stop stop-color="#3E77FF"/>
<stop offset="0.1792" stop-color="#457DFF"/>
<stop offset="0.4414" stop-color="#5990FF"/>
<stop offset="0.7527" stop-color="#79ADFF"/>
<stop offset="1" stop-color="#97C9FF"/>
</linearGradient>
<linearGradient id="paint1_linear_883_22608" x1="9.56451" y1="25.8798" x2="28.479" y2="25.8798" gradientUnits="userSpaceOnUse">
<stop stop-color="#2AEDFF"/>
<stop offset="0.1628" stop-color="#2BE8FF"/>
<stop offset="0.3547" stop-color="#2DDAFF"/>
<stop offset="0.5613" stop-color="#31C2FF"/>
<stop offset="0.7784" stop-color="#37A1FF"/>
<stop offset="1" stop-color="#3E77FF"/>
</linearGradient>
<linearGradient id="paint2_linear_883_22608" x1="19.0214" y1="22.2971" x2="28.4788" y2="22.2971" gradientUnits="userSpaceOnUse">
<stop stop-color="#2AEDFF"/>
<stop offset="0.1628" stop-color="#2BE8FF"/>
<stop offset="0.3547" stop-color="#2DDAFF"/>
<stop offset="0.5613" stop-color="#31C2FF"/>
<stop offset="0.7784" stop-color="#37A1FF"/>
<stop offset="1" stop-color="#3E77FF"/>
</linearGradient>
<linearGradient id="paint3_linear_883_22608" x1="9.56458" y1="22.297" x2="19.022" y2="22.297" gradientUnits="userSpaceOnUse">
<stop stop-color="#2AEDFF"/>
<stop offset="0.1628" stop-color="#2BE8FF"/>
<stop offset="0.3547" stop-color="#2DDAFF"/>
<stop offset="0.5613" stop-color="#31C2FF"/>
<stop offset="0.7784" stop-color="#37A1FF"/>
<stop offset="1" stop-color="#3E77FF"/>
</linearGradient>
<linearGradient id="paint4_linear_883_22608" x1="9.56458" y1="24.4366" x2="28.4791" y2="24.4366" gradientUnits="userSpaceOnUse">
<stop stop-color="#2AEDFF"/>
<stop offset="0.1628" stop-color="#2BE8FF"/>
<stop offset="0.3547" stop-color="#2DDAFF"/>
<stop offset="0.5613" stop-color="#31C2FF"/>
<stop offset="0.7784" stop-color="#37A1FF"/>
<stop offset="1" stop-color="#3E77FF"/>
</linearGradient>
<linearGradient id="paint5_linear_883_22608" x1="19.0217" y1="28.0184" x2="28.4788" y2="28.0184" gradientUnits="userSpaceOnUse">
<stop stop-color="#2AEDFF"/>
<stop offset="0.1628" stop-color="#2BE8FF"/>
<stop offset="0.3547" stop-color="#2DDAFF"/>
<stop offset="0.5613" stop-color="#31C2FF"/>
<stop offset="0.7784" stop-color="#37A1FF"/>
<stop offset="1" stop-color="#3E77FF"/>
</linearGradient>
<linearGradient id="paint6_linear_883_22608" x1="9.56451" y1="28.0183" x2="19.0219" y2="28.0183" gradientUnits="userSpaceOnUse">
<stop stop-color="#2AEDFF"/>
<stop offset="0.1628" stop-color="#2BE8FF"/>
<stop offset="0.3547" stop-color="#2DDAFF"/>
<stop offset="0.5613" stop-color="#31C2FF"/>
<stop offset="0.7784" stop-color="#37A1FF"/>
<stop offset="1" stop-color="#3E77FF"/>
</linearGradient>
<radialGradient id="paint7_radial_883_22608" cx="0" cy="0" r="1" gradientUnits="userSpaceOnUse" gradientTransform="translate(14.0479 6.62132) rotate(168.28) scale(12.1846 12.7214)">
<stop stop-color="#9BC9FF"/>
<stop offset="1" stop-color="#2355FE"/>
</radialGradient>
<radialGradient id="paint8_radial_883_22608" cx="0" cy="0" r="1" gradientUnits="userSpaceOnUse" gradientTransform="translate(15.4763 15.7783) rotate(180) scale(9.34869 13.3359)">
<stop stop-color="#9BC9FF"/>
<stop offset="1" stop-color="#2355FE"/>
</radialGradient>
<linearGradient id="paint9_linear_883_22608" x1="18.6859" y1="24.7014" x2="18.6859" y2="11.371" gradientUnits="userSpaceOnUse">
<stop stop-color="#2AEDFF"/>
<stop offset="0.0581" stop-color="#29DBFF"/>
<stop offset="0.2035" stop-color="#27B2FF"/>
<stop offset="0.3528" stop-color="#2690FE"/>
<stop offset="0.5049" stop-color="#2576FE"/>
<stop offset="0.6606" stop-color="#2464FE"/>
<stop offset="0.8225" stop-color="#2359FE"/>
<stop offset="1" stop-color="#2355FE"/>
</linearGradient>
<radialGradient id="paint10_radial_883_22608" cx="0" cy="0" r="1" gradientUnits="userSpaceOnUse" gradientTransform="translate(24.1631 -0.711001) rotate(180) scale(6.58345 6.89894)">
<stop stop-color="#9BC9FF"/>
<stop offset="1" stop-color="#2355FE"/>
</radialGradient>
<radialGradient id="paint11_radial_883_22608" cx="0" cy="0" r="1" gradientUnits="userSpaceOnUse" gradientTransform="translate(15.0076 7.45262) rotate(180) scale(9.37737 9.82676)">
<stop stop-color="#9BC9FF"/>
<stop offset="1" stop-color="#2355FE"/>
</radialGradient>
<linearGradient id="paint12_linear_883_22608" x1="19.2423" y1="14.0721" x2="17.5495" y2="2.57766" gradientUnits="userSpaceOnUse">
<stop stop-color="#2AEDFF"/>
<stop offset="0.0581" stop-color="#29DBFF"/>
<stop offset="0.2035" stop-color="#27B2FF"/>
<stop offset="0.3528" stop-color="#2690FE"/>
<stop offset="0.5049" stop-color="#2576FE"/>
<stop offset="0.6606" stop-color="#2464FE"/>
<stop offset="0.8225" stop-color="#2359FE"/>
<stop offset="1" stop-color="#2355FE"/>
</linearGradient>
<radialGradient id="paint13_radial_883_22608" cx="0" cy="0" r="1" gradientUnits="userSpaceOnUse" gradientTransform="translate(15.0827 7.34785) rotate(180) scale(4.45336 4.66678)">
<stop stop-color="#9BC9FF"/>
<stop offset="1" stop-color="#2355FE"/>
</radialGradient>
<radialGradient id="paint14_radial_883_22608" cx="0" cy="0" r="1" gradientUnits="userSpaceOnUse" gradientTransform="translate(11.2476 14.9864) rotate(168.28) scale(4.40379 4.59781)">
<stop stop-color="#9BC9FF"/>
<stop offset="1" stop-color="#2355FE"/>
</radialGradient>
<linearGradient id="paint15_linear_883_22608" x1="14.2005" y1="17.7252" x2="10.6829" y2="15.2862" gradientUnits="userSpaceOnUse">
<stop stop-color="#2AEDFF"/>
<stop offset="0.0581" stop-color="#29DBFF"/>
<stop offset="0.2035" stop-color="#27B2FF"/>
<stop offset="0.3528" stop-color="#2690FE"/>
<stop offset="0.5049" stop-color="#2576FE"/>
<stop offset="0.6606" stop-color="#2464FE"/>
<stop offset="0.8225" stop-color="#2359FE"/>
<stop offset="1" stop-color="#2355FE"/>
</linearGradient>
<radialGradient id="paint16_radial_883_22608" cx="0" cy="0" r="1" gradientUnits="userSpaceOnUse" gradientTransform="translate(8.51723 21.9761) rotate(172.874) scale(3.73941 6.44618)">
<stop stop-color="#9BC9FF"/>
<stop offset="1" stop-color="#2355FE"/>
</radialGradient>
<linearGradient id="paint17_linear_883_22608" x1="12.1034" y1="23.9893" x2="9.20186" y2="24.3196" gradientUnits="userSpaceOnUse">
<stop stop-color="#2AEDFF"/>
<stop offset="0.0581" stop-color="#29DBFF"/>
<stop offset="0.2035" stop-color="#27B2FF"/>
<stop offset="0.3528" stop-color="#2690FE"/>
<stop offset="0.5049" stop-color="#2576FE"/>
<stop offset="0.6606" stop-color="#2464FE"/>
<stop offset="0.8225" stop-color="#2359FE"/>
<stop offset="1" stop-color="#2355FE"/>
</linearGradient>
<radialGradient id="paint18_radial_883_22608" cx="0" cy="0" r="1" gradientUnits="userSpaceOnUse" gradientTransform="translate(26.9961 15.7732) rotate(117.613) scale(3.8753 6.2203)">
<stop stop-color="#9BC9FF"/>
<stop offset="1" stop-color="#2355FE"/>
</radialGradient>
<linearGradient id="paint19_linear_883_22608" x1="28.7564" y1="17.209" x2="31.9987" y2="16.4147" gradientUnits="userSpaceOnUse">
<stop stop-color="#2AEDFF"/>
<stop offset="0.0581" stop-color="#29DBFF"/>
<stop offset="0.2035" stop-color="#27B2FF"/>
<stop offset="0.3528" stop-color="#2690FE"/>
<stop offset="0.5049" stop-color="#2576FE"/>
<stop offset="0.6606" stop-color="#2464FE"/>
<stop offset="0.8225" stop-color="#2359FE"/>
<stop offset="1" stop-color="#2355FE"/>
</linearGradient>
<linearGradient id="paint20_linear_883_22608" x1="29.6493" y1="18.3806" x2="22.4387" y2="18.3806" gradientUnits="userSpaceOnUse">
<stop stop-color="#97C9FF"/>
<stop offset="0.1579" stop-color="#91CBFF"/>
<stop offset="0.3765" stop-color="#7FD1FF"/>
<stop offset="0.6305" stop-color="#61DBFF"/>
<stop offset="0.9091" stop-color="#39E8FF"/>
<stop offset="1" stop-color="#2AEDFF"/>
</linearGradient>
<linearGradient id="paint21_linear_883_22608" x1="31.586" y1="18.5497" x2="22.9996" y2="18.5497" gradientUnits="userSpaceOnUse">
<stop stop-color="#97C9FF"/>
<stop offset="0.1579" stop-color="#91CBFF"/>
<stop offset="0.3765" stop-color="#7FD1FF"/>
<stop offset="0.6305" stop-color="#61DBFF"/>
<stop offset="0.9091" stop-color="#39E8FF"/>
<stop offset="1" stop-color="#2AEDFF"/>
</linearGradient>
<linearGradient id="paint22_linear_883_22608" x1="32.772" y1="18.5497" x2="17.2807" y2="18.5497" gradientUnits="userSpaceOnUse">
<stop stop-color="#9BC9FF"/>
<stop offset="0.00365043" stop-color="#9AC8FF"/>
<stop offset="0.1893" stop-color="#79ABFF"/>
<stop offset="0.3788" stop-color="#5F94FF"/>
<stop offset="0.5742" stop-color="#4D84FF"/>
<stop offset="0.7772" stop-color="#427AFF"/>
<stop offset="1" stop-color="#3E77FF"/>
</linearGradient>
</defs>
</svg>
